<svg xmlns="http://www.w3.org/2000/svg" width="141" height="31" fill="none"><g fill="#5A5A5A" clip-path="url(#a)"><path fill-rule="evenodd" d="M15.866 30.75c8.486 0 15.366-6.879 15.366-15.365S24.352.02 15.866.02.5 6.899.5 15.385s6.88 15.366 15.366 15.366zM20.66 7.178c.233-.828-.572-1.318-1.306-.795L9.1 13.687c-.797.567-.672 1.698.188 1.698h2.7v-.02h5.263l-4.288 1.512-1.89 6.716c-.234.829.57 1.319 1.305.795l10.254-7.305c.797-.567.671-1.698-.188-1.698h-4.095l2.31-8.208z" clip-rule="evenodd"/><path d="M51.914 21.387h-7.78v-13.4h7.5c2.56 0 4.1 1.18 4.1 3.3 0 1.58-.88 2.76-2.92 3v.14c2.28.26 3.4 1.5 3.4 3.26 0 2.3-1.54 3.7-4.3 3.7zm-5.64-11.46v3.68h5.06c1.5 0 2.26-.58 2.26-1.84 0-1.26-.7-1.84-2.2-1.84h-5.12zm0 5.46v4.06h5.4c1.6 0 2.38-.6 2.38-2.06 0-1.4-.8-2-2.38-2h-5.4zm16.42 6.2c-3.3 0-5.52-2.1-5.52-5.16 0-3.1 2.22-5.18 5.52-5.18 3.32 0 5.54 2.08 5.54 5.18 0 3.06-2.22 5.16-5.54 5.16zm0-1.92c2.42 0 3.42-1.14 3.42-3.24 0-2.12-1-3.28-3.42-3.28-2.4 0-3.4 1.16-3.4 3.28 0 2.1 1 3.24 3.4 3.24zm9.267 1.72H69.8v-13.4h2.16v13.4zm8.52 0H78.2c-2.14 0-3.46-.94-3.46-3.36v-4.78h-1.68v-1.8h1.68v-2.18h2.14v2.18h3.6v1.8h-3.6v4.66c0 1.22.56 1.54 1.8 1.54h1.8v1.94zm6.971.2c-4 0-6.04-1.76-6.04-4.58v-.12h2.16v.32c0 1.6.94 2.4 3.88 2.4 2.56 0 3.46-.56 3.46-1.82 0-1.16-.68-1.6-2.38-1.92l-3.28-.54c-2.26-.4-3.86-1.44-3.86-3.64 0-1.94 1.6-3.9 5.76-3.9 3.92 0 5.7 1.96 5.7 4.58v.12h-2.14v-.26c0-1.64-.98-2.46-3.76-2.46-2.44 0-3.4.6-3.4 1.8 0 1.16.68 1.54 2.26 1.88l3.26.56c2.68.48 4 1.7 4 3.66 0 2.04-1.66 3.92-5.62 3.92zm9.314 3.2h-2.16v-13.34h1.98v2.76h.18c.4-1.84 1.8-2.96 4.139-2.96 3.08 0 4.82 2.1 4.82 5.18 0 3.08-1.7 5.16-4.8 5.16-2.24 0-3.68-1.18-4.08-3h-.08v6.2zm0-8.2c0 2.04 1.3 3.04 3.419 3.04 2.14 0 3.38-.82 3.38-3.2 0-2.4-1.26-3.2-3.34-3.2-2.22 0-3.46 1.04-3.46 3.18v.18zm13.377 5c-2.06 0-3.36-.96-3.36-2.6 0-1.54 1.24-2.34 3.2-2.56l4.52-.48v-.58c0-1.64-.72-2.22-2.62-2.22-1.84 0-2.74.6-2.74 2.06v.08h-2.14v-.08c0-2.26 1.88-3.96 5.04-3.96s4.58 1.72 4.58 4.1v6.04h-1.98v-2.48h-.14c-.52 1.68-2.1 2.68-4.36 2.68zm-1.2-2.74c0 .8.54 1.18 1.78 1.18 2.26 0 3.78-.84 3.78-2.8l-3.9.44c-1.12.14-1.66.4-1.66 1.18zm11.768 2.54h-2.16v-9.94h1.98v2.68h.14c.3-1.6 1.38-2.88 3.42-2.88 2.26 0 3.24 1.62 3.24 3.5v1.3h-2.14v-.88c0-1.42-.6-2.08-2.08-2.08-1.7 0-2.4.94-2.4 2.72v5.58zm10.137 0h-2.16v-13.4h2.16v7.4h2.84l2.98-3.94h2.52l-3.74 4.78 3.72 5.16h-2.54l-2.94-4.06h-2.84v4.06z"/></g><defs><clipPath id="a"><path fill="#fff" d="M.5.02h139.732v30.731H.5z"/></clipPath></defs></svg>