<?xml version="1.0" encoding="UTF-8"?>
<svg xmlns="http://www.w3.org/2000/svg" width="168" height="40" viewBox="0 0 168 40" fill="none">
  <g clip-path="url(#clip0_9611_15867)">
    <path fill-rule="evenodd" clip-rule="evenodd" d="M11.7122 2.37842H0V14.0907H11.7122V2.37842ZM0 14.0908H11.7119V14.0908H23.5306V25.9095H11.7122V25.9096V37.6214H0V25.9096V25.9092V14.0908ZM35.2437 2.37842H23.5315V14.0907H35.2437V2.37842ZM149.436 32.8302C147.855 31.8915 146.607 30.6315 145.693 29.0505C144.779 27.4447 144.322 25.6413 144.322 23.6402C144.322 21.6392 144.779 19.8481 145.693 18.267C146.607 16.6859 147.855 15.4384 149.436 14.5243C151.042 13.6102 152.845 13.1532 154.846 13.1532C156.279 13.1532 157.613 13.4126 158.848 13.9314C160.083 14.4255 161.146 15.1172 162.035 16.0066C162.949 16.8712 163.604 17.9088 163.999 19.1193L159.738 20.9721C159.367 19.9593 158.737 19.144 157.848 18.5264C156.983 17.9088 155.982 17.6 154.846 17.6C153.784 17.6 152.833 17.8594 151.993 18.3782C151.177 18.897 150.535 19.6134 150.066 20.5275C149.596 21.4415 149.362 22.4915 149.362 23.6773C149.362 24.8631 149.596 25.913 150.066 26.8271C150.535 27.7411 151.177 28.4576 151.993 28.9764C152.833 29.4951 153.784 29.7545 154.846 29.7545C156.007 29.7545 157.02 29.4457 157.885 28.8281C158.749 28.2105 159.367 27.3829 159.738 26.3453L163.999 28.2723C163.604 29.4087 162.961 30.4339 162.072 31.348C161.183 32.2373 160.12 32.9414 158.885 33.4602C157.65 33.9543 156.304 34.2013 154.846 34.2013C152.845 34.2013 151.042 33.7443 149.436 32.8302ZM135.801 13.5979V33.7567H140.656V13.5979H135.801ZM135.801 6.14954V11.3375H140.656V6.14954H135.801ZM121.942 33.7563V13.5976H126.5V16.435C126.953 15.4427 127.558 14.7193 128.316 14.2646C129.329 13.6717 130.539 13.3752 131.948 13.3752H133.133V17.6738H131.392C130.008 17.6738 128.897 18.1061 128.057 18.9708C127.217 19.8107 126.797 20.9965 126.797 22.5282V33.7563H121.942ZM104.011 33.3489C105.246 33.9171 106.593 34.2012 108.05 34.2012C110.002 34.2012 111.744 33.7442 113.275 32.8301C114.807 31.8913 116.018 30.6191 116.907 29.0133C117.796 27.4075 118.241 25.6288 118.241 23.6771C118.241 21.7008 117.784 19.9221 116.87 18.341C115.981 16.7599 114.77 15.5 113.238 14.5612C111.707 13.6225 109.99 13.1531 108.087 13.1531C106.531 13.1531 105.16 13.4619 103.974 14.0795C103.168 14.4824 102.477 14.9994 101.899 15.6304V5.70472H97.0446V33.7565H101.603V31.4784C102.251 32.2565 103.054 32.88 104.011 33.3489ZM110.459 28.9762C109.594 29.495 108.606 29.7544 107.495 29.7544C106.432 29.7544 105.469 29.495 104.604 28.9762C103.764 28.4574 103.097 27.741 102.603 26.827C102.134 25.9129 101.899 24.863 101.899 23.6771C101.899 22.516 102.134 21.4785 102.603 20.5644C103.097 19.6256 103.764 18.8969 104.604 18.3781C105.469 17.8593 106.432 17.5999 107.495 17.5999C108.606 17.5999 109.594 17.8716 110.459 18.4151C111.324 18.9339 111.991 19.6503 112.46 20.5644C112.954 21.4538 113.201 22.4913 113.201 23.6771C113.201 24.863 112.954 25.9129 112.46 26.827C111.991 27.741 111.324 28.4574 110.459 28.9762ZM82.2662 34.201C80.7098 34.201 79.3511 33.8551 78.19 33.1634C77.0536 32.4717 76.1766 31.5082 75.559 30.273C74.9661 29.0378 74.6696 27.5926 74.6696 25.9374V13.5975H79.524V25.5298C79.524 26.3697 79.6846 27.1108 80.0058 27.7531C80.3516 28.3708 80.8334 28.8648 81.451 29.2354C82.0933 29.5813 82.8097 29.7542 83.6003 29.7542C84.3908 29.7542 85.0949 29.5813 85.7125 29.2354C86.3301 28.8648 86.8118 28.3584 87.1577 27.7161C87.5036 27.0738 87.6765 26.3079 87.6765 25.4186V13.5975H92.5309V33.7563H87.9359V31.3598C87.4678 32.1724 86.8255 32.8106 86.0089 33.2746C84.9466 33.8922 83.6991 34.201 82.2662 34.201ZM50.9859 6.14953V33.7567H56.0256V23.5661H60.7726L66.4756 33.7567H72.1823L65.8456 22.6768C67.3773 22.0344 68.5878 21.0463 69.4772 19.7122C70.3912 18.3782 70.8483 16.7601 70.8483 14.8578C70.8483 13.005 70.4406 11.4363 69.6254 10.1516C68.8102 8.84231 67.6737 7.85414 66.2162 7.18712C64.7833 6.4954 63.1281 6.14953 61.2506 6.14953H50.9859ZM61.3247 19.1193H56.0256V10.5963H61.3247C62.2388 10.5963 63.0293 10.7816 63.6963 11.1522C64.3634 11.498 64.8822 11.9921 65.2527 12.6344C65.6233 13.252 65.8086 13.9932 65.8086 14.8578C65.8086 15.6978 65.6233 16.4389 65.2527 17.0812C64.8822 17.7235 64.3634 18.23 63.6963 18.6005C63.0293 18.9464 62.2388 19.1193 61.3247 19.1193Z" fill="url(#paint0_linear_9611_15867)"></path>
  </g>
  <defs>
    <linearGradient id="paint0_linear_9611_15867" x1="81.9995" y1="2.37842" x2="81.9995" y2="37.6214" gradientUnits="userSpaceOnUse">
      <stop stop-color="#C9CBCF"></stop>
      <stop offset="1" stop-color="#94979E"></stop>
    </linearGradient>
    <clipPath id="clip0_9611_15867">
      <rect width="168" height="40" fill="white"></rect>
    </clipPath>
  </defs>
</svg>
