<?xml version="1.0" encoding="UTF-8"?>
<svg xmlns="http://www.w3.org/2000/svg" width="230" height="52" viewBox="0 0 230 52" fill="none">
  <path d="M126.286 11.0829V6.70923H110.78C108.172 6.70923 106.066 8.81803 106.066 11.4307V37.8072H110.985V24.823H124.605V20.4465H110.985V11.0994H126.286V11.0829Z" fill="url(#paint0_linear_25924_3116)"></path>
  <path d="M150.099 18.7431C150.489 18.7184 150.88 18.7239 151.29 18.7622C151.353 18.7677 151.419 18.7787 151.482 18.7869L151.687 18.8143C151.785 18.828 151.884 18.8389 151.979 18.8581C152.078 18.8773 152.174 18.8992 152.266 18.9238L152.444 18.9676C152.513 18.9841 152.581 18.9978 152.647 19.0169C152.78 19.0553 152.912 19.1018 153.051 19.1511L153.122 19.1758C153.177 19.195 153.232 19.2141 153.286 19.2333C153.431 19.2881 153.571 19.3511 153.751 19.4332L153.904 19.5044C154.06 19.5811 154.213 19.6633 154.361 19.7509L154.473 19.8166C154.637 19.9152 154.795 20.0193 154.968 20.1453L154.995 20.1645C155.916 20.8354 156.684 21.7255 157.223 22.7416L157.403 23.0839L160.178 18.9649L160.074 18.8307C159.858 18.5596 159.653 18.3158 159.446 18.0885L159.295 17.9215C159.238 17.8557 159.18 17.79 159.118 17.727C159.066 17.675 159.014 17.6284 158.959 17.5819C158.924 17.5517 158.888 17.5216 158.855 17.4887L158.8 17.4395C158.456 17.119 158.087 16.8123 157.699 16.5247L157.551 16.4152C157.362 16.281 157.168 16.1495 156.972 16.029C156.911 15.9907 156.851 15.9578 156.791 15.9222L156.709 15.8729C156.419 15.7031 156.129 15.547 155.848 15.4073C155.678 15.3252 155.506 15.243 155.331 15.1663C155.304 15.1554 155.277 15.1417 155.249 15.128C155.208 15.1088 155.167 15.0869 155.123 15.0705C155.08 15.054 155.036 15.0376 154.992 15.0239C154.962 15.013 154.932 15.0047 154.905 14.9938C154.697 14.9144 154.486 14.8404 154.273 14.772L154.158 14.7336C154.093 14.7117 154.024 14.6898 153.959 14.6679C153.664 14.5802 153.352 14.5063 153.013 14.4351C152.936 14.4187 152.86 14.405 152.78 14.394L152.685 14.3776C152.441 14.3338 152.195 14.2982 151.949 14.2708L151.878 14.2626C151.794 14.2543 151.712 14.2434 151.627 14.2352C150.919 14.1749 150.388 14.1722 149.814 14.2105C146.252 14.4378 142.867 16.4398 140.765 19.5619L133.482 30.3743V6.70923H128.949V37.8072H133.944L144.519 22.1035C145.842 20.1371 147.928 18.8827 150.099 18.7431Z" fill="url(#paint1_linear_25924_3116)"></path>
  <path d="M201.998 14.5885H196.992L191.773 30.3579L186.647 14.9966L186.511 14.5885H182.492L182.355 14.9966L177.188 30.3579L172.147 14.9966L172.013 14.5885H167.237L167.146 14.7227L156.648 30.3114C155.325 32.2778 153.239 33.5348 151.068 33.6718C150.91 33.6827 150.754 33.6882 150.593 33.6882C150.363 33.6745 150.117 33.6772 149.874 33.6553C149.816 33.6498 149.759 33.6416 149.704 33.6334L149.513 33.606C149.404 33.5923 149.294 33.5786 149.185 33.5567C149.095 33.5403 149.007 33.5184 148.917 33.4965L148.731 33.4527C148.657 33.4362 148.586 33.4198 148.512 33.3979C148.384 33.3623 148.261 33.3185 148.119 33.2664L148.045 33.2418C147.987 33.2226 147.927 33.2034 147.87 33.1788C147.728 33.124 147.591 33.0638 147.454 33.0008L147.402 32.9761C147.353 32.9542 147.301 32.9296 147.252 32.9077C147.102 32.831 146.951 32.7516 146.804 32.6639L146.681 32.59C146.522 32.4914 146.366 32.39 146.213 32.2832L146.156 32.2422C145.237 31.5712 144.472 30.6811 143.936 29.6705L143.755 29.3282L140.98 33.4472L141.084 33.5814C141.298 33.8498 141.503 34.0908 141.713 34.3236L141.864 34.4906C141.921 34.5564 141.978 34.6221 142.041 34.6851C142.093 34.7371 142.148 34.7837 142.203 34.833C142.238 34.8631 142.274 34.896 142.306 34.9261L142.345 34.9617C142.692 35.2848 143.064 35.5943 143.452 35.8819L143.61 35.9996C143.799 36.1338 143.988 36.2598 144.182 36.3831C144.242 36.4214 144.305 36.457 144.368 36.4954L144.458 36.5474C144.742 36.7144 145.027 36.8678 145.305 37.0047C145.478 37.0896 145.65 37.1718 145.825 37.2458C145.852 37.2567 145.88 37.2704 145.907 37.2841C145.948 37.306 145.992 37.3252 146.033 37.3416C146.076 37.3608 146.123 37.3745 146.167 37.3909L146.254 37.421C146.462 37.5005 146.672 37.5744 146.886 37.6429L147 37.6812C147.066 37.7031 147.132 37.725 147.197 37.7442C147.49 37.8291 147.802 37.9058 148.146 37.977C148.223 37.9934 148.299 38.0044 148.378 38.0181L148.469 38.0345C148.715 38.0783 148.963 38.1139 149.212 38.1413L149.278 38.1495C149.36 38.1577 149.445 38.1687 149.527 38.1769C149.92 38.2098 150.251 38.2262 150.571 38.2262C150.828 38.2262 151.085 38.218 151.342 38.2016C154.904 37.9742 158.286 35.9723 160.391 32.8501L168.915 20.1919L173.825 34.4961L174.963 37.8072H179.102L179.176 37.5799L179.84 35.5779L179.856 35.5313L184.509 21.5092L189.25 35.9065L189.876 37.8072H193.971L194.051 37.5799H194.053L194.545 36.153L199.879 20.6903L199.909 20.5999L201.842 14.9966L201.984 14.5885H201.998Z" fill="url(#paint2_linear_25924_3116)"></path>
  <path d="M21.8 32.1655C23.4868 31.1385 24.81 29.75 25.7723 27.9972C26.7346 26.2445 27.2213 24.2699 27.2213 22.0926C27.2213 19.9153 26.7319 17.9079 25.7723 16.1715C24.81 14.4352 23.4868 13.0439 21.8164 12.0197C20.146 10.9926 18.2213 10.4887 16.0479 10.4887C13.8744 10.4887 11.9963 10.9926 10.3259 12.0197C8.65547 13.0467 7.33227 14.4188 6.36994 16.1715C5.40762 17.9243 4.93466 19.8989 4.93466 22.0926C4.93466 24.2863 5.40762 26.2445 6.36994 27.9972C7.33227 29.75 8.65547 31.1385 10.3259 32.1655C11.9963 33.1925 13.9045 33.6965 16.0479 33.6965C18.1912 33.6965 20.1159 33.1898 21.8 32.1655ZM9.74082 37.0295C7.78609 36.2407 6.08289 35.1042 4.63393 33.6499C3.18497 32.1984 2.04768 30.4922 1.23025 28.5176C0.410082 26.543 0 24.4123 0 22.0899C0 19.7674 0.410082 17.6367 1.23025 15.6621C2.05041 13.6875 3.18497 11.9978 4.63393 10.5462C6.08289 9.10842 7.78609 7.9883 9.74082 7.19955C11.6955 6.4108 13.7924 6 16.0452 6C18.2979 6 20.4112 6.39437 22.3495 7.19955C24.3042 7.9883 26.0074 9.12486 27.4728 10.5791C28.9381 12.0306 30.0727 13.7368 30.8765 15.695C31.6802 17.6532 32.0903 19.7839 32.0903 22.1063C32.0903 24.4287 31.6802 26.5594 30.8601 28.5176C30.0399 30.4757 28.9053 32.182 27.4564 33.6335C26.0074 35.085 24.3042 36.2243 22.3495 37.0295C20.3948 37.8346 18.2979 38.2454 16.0452 38.2454C13.8061 38.2126 11.6955 37.8182 9.74082 37.0295Z" fill="url(#paint3_linear_25924_3116)"></path>
  <path d="M51.0305 32.8584C52.0557 32.2121 52.8758 31.3275 53.4746 30.2046C54.0733 29.068 54.374 27.8055 54.374 26.3677C54.374 24.9299 54.0733 23.6673 53.4746 22.5609C52.8758 21.4408 52.0557 20.5699 51.0305 19.9235C50.0053 19.2772 48.8078 18.9595 47.4846 18.9595C46.1614 18.9595 44.9941 19.2744 43.9524 19.9235C42.9108 20.5699 42.0934 21.4408 41.4947 22.5609C40.896 23.681 40.5952 24.9463 40.5952 26.3677C40.5952 27.7891 40.896 29.068 41.4947 30.2046C42.0934 31.3412 42.9136 32.2258 43.9524 32.8584C44.9941 33.5047 46.1751 33.8224 47.4846 33.8224C48.8078 33.8224 49.9916 33.5075 51.0305 32.8584ZM35.8519 15.0623H40.3601V17.9051C41.1967 16.848 42.2684 16.0264 43.5588 15.443C44.8519 14.8597 46.3172 14.5584 47.9248 14.5584C50.0681 14.5584 52.0065 15.0788 53.7097 16.1058C55.4265 17.1328 56.7689 18.5542 57.7613 20.3371C58.7537 22.1227 59.243 24.1274 59.243 26.3704C59.243 28.6134 58.7537 30.6181 57.7613 32.4038C56.7689 34.1894 55.4293 35.608 53.7261 36.6515C52.0229 37.6949 50.0845 38.2153 47.9084 38.2153C46.4102 38.2153 45.0077 37.9469 43.731 37.3937C42.4543 36.8569 41.3826 36.0682 40.546 35.0713V41.3566C40.546 43.9775 38.4327 46.0945 35.8164 46.0945V15.0651H35.8492L35.8519 15.0623Z" fill="url(#paint4_linear_25924_3116)"></path>
  <path d="M66.495 37.076C65.2182 36.301 64.2094 35.2274 63.5014 33.8553C62.7933 32.4805 62.4297 30.8701 62.4297 29.0544V15.0624H67.1593V28.6272C67.1593 30.191 67.6323 31.4535 68.5618 32.4011C69.4913 33.3487 70.6887 33.8225 72.1404 33.8225C73.5921 33.8225 74.836 33.3322 75.782 32.3545C76.7279 31.3768 77.2009 30.065 77.2009 28.4218V15.0624H81.8813V37.7224H77.4059V34.9125C76.7607 35.9696 75.8913 36.7912 74.7732 37.3609C73.655 37.9305 72.392 38.2126 70.9731 38.2126C69.2699 38.2126 67.7744 37.8347 66.4977 37.076" fill="url(#paint5_linear_25924_3116)"></path>
  <path d="M88.2556 36.5064C86.5059 35.3699 85.2921 33.8225 84.5977 31.8945L88.2392 30.1718C88.8543 31.4508 89.6881 32.4778 90.7626 33.2364C91.8342 33.995 93.0317 34.373 94.3412 34.373C95.4594 34.373 96.3588 34.121 97.0532 33.6144C97.7476 33.1077 98.0948 32.4313 98.0948 31.5603C98.0948 30.7552 97.7804 30.139 97.1325 29.7446C96.4873 29.3338 95.8093 29.0353 95.0821 28.8436L91.5362 27.833C89.5815 27.2798 88.1326 26.4445 87.1702 25.3216C86.2079 24.2015 85.7213 22.8732 85.7213 21.3423C85.7213 19.9674 86.0685 18.7843 86.7629 17.7902C87.4573 16.7796 88.4169 15.9908 89.6471 15.4212C90.8774 14.8515 92.2471 14.5695 93.7917 14.5695C95.8558 14.5695 97.7011 15.0734 99.3087 16.1004C100.933 17.1274 102.067 18.5324 102.729 20.3481L99.0872 22.068C98.6471 20.978 97.9363 20.1098 96.9739 19.4772C96.0116 18.8309 94.9235 18.5132 93.7261 18.5132C92.7009 18.5132 91.867 18.7487 91.2683 19.2225C90.6532 19.6963 90.3552 20.3426 90.3552 21.1478C90.3552 21.953 90.6559 22.5226 91.2683 22.9006C91.8834 23.295 92.5287 23.5962 93.2395 23.8153L96.9111 24.9053C98.7701 25.4421 100.222 26.2637 101.214 27.4003C102.223 28.5368 102.712 29.8788 102.712 31.4426C102.712 32.7845 102.365 33.9677 101.671 34.981C100.976 36.008 99.9839 36.7967 98.7236 37.3664C97.4633 37.936 95.9815 38.2181 94.3111 38.2181C92.0256 38.2017 89.9916 37.6348 88.2583 36.4982" fill="url(#paint6_linear_25924_3116)"></path>
  <defs>
    <linearGradient id="paint0_linear_25924_3116" x1="116.176" y1="6.70923" x2="116.176" y2="37.8072" gradientUnits="userSpaceOnUse">
      <stop stop-color="#C9CBCF"></stop>
      <stop offset="1" stop-color="#94979E"></stop>
    </linearGradient>
    <linearGradient id="paint1_linear_25924_3116" x1="144.564" y1="6.70923" x2="144.564" y2="37.8072" gradientUnits="userSpaceOnUse">
      <stop stop-color="#C9CBCF"></stop>
      <stop offset="1" stop-color="#94979E"></stop>
    </linearGradient>
    <linearGradient id="paint2_linear_25924_3116" x1="171.489" y1="14.5885" x2="171.489" y2="38.2262" gradientUnits="userSpaceOnUse">
      <stop stop-color="#C9CBCF"></stop>
      <stop offset="1" stop-color="#94979E"></stop>
    </linearGradient>
    <linearGradient id="paint3_linear_25924_3116" x1="16.0452" y1="6" x2="16.0452" y2="38.2454" gradientUnits="userSpaceOnUse">
      <stop stop-color="#C9CBCF"></stop>
      <stop offset="1" stop-color="#94979E"></stop>
    </linearGradient>
    <linearGradient id="paint4_linear_25924_3116" x1="47.5297" y1="14.5584" x2="47.5297" y2="46.0945" gradientUnits="userSpaceOnUse">
      <stop stop-color="#C9CBCF"></stop>
      <stop offset="1" stop-color="#94979E"></stop>
    </linearGradient>
    <linearGradient id="paint5_linear_25924_3116" x1="72.1555" y1="15.0624" x2="72.1555" y2="38.2126" gradientUnits="userSpaceOnUse">
      <stop stop-color="#C9CBCF"></stop>
      <stop offset="1" stop-color="#94979E"></stop>
    </linearGradient>
    <linearGradient id="paint6_linear_25924_3116" x1="93.6632" y1="14.5695" x2="93.6632" y2="38.2181" gradientUnits="userSpaceOnUse">
      <stop stop-color="#C9CBCF"></stop>
      <stop offset="1" stop-color="#94979E"></stop>
    </linearGradient>
  </defs>
</svg>
