<?xml version="1.0" encoding="UTF-8"?>
<svg xmlns="http://www.w3.org/2000/svg" width="191" height="52" viewBox="0 0 191 52" fill="none">
  <path d="M166.358 44.0697C165.626 44.359 164.983 44.6628 164.311 44.8695C162.005 45.58 159.645 45.9294 157.226 45.7974C151.666 45.4956 146.891 43.4728 143.135 39.2855C141.335 37.2792 140.093 34.9516 139.251 32.3892C138.2 29.1919 138.047 25.919 138.629 22.6577C139.459 17.9996 141.688 14.087 145.391 11.0499C147.224 9.54643 149.26 8.41953 151.475 7.63817C153.51 6.92088 155.629 6.60446 157.802 6.60931C159.639 6.61319 161.468 6.7054 163.242 7.16354C167.908 8.36809 171.738 10.8451 174.508 14.8393C175.823 16.7359 176.753 18.812 177.33 21.0561C177.852 23.0828 178.099 25.1337 177.963 27.2157C177.766 30.2286 176.991 33.088 175.483 35.7252C175.413 35.8466 175.318 35.9533 175.21 36.0989C175.077 36.0174 174.962 35.9718 174.881 35.8932C173.394 34.4537 171.918 33.0026 170.421 31.5739C170.16 31.3244 170.124 31.0856 170.236 30.7828C170.815 29.2104 171.012 27.572 170.979 25.9122C170.914 22.6577 169.928 19.7186 167.827 17.1989C166.14 15.1761 164.01 13.8201 161.465 13.1445C159.828 12.7097 158.163 12.6058 156.471 12.8174C152.697 13.2892 149.772 15.1266 147.658 18.2578C146.473 20.0137 145.714 21.9481 145.481 24.068C145.398 24.827 145.267 25.5909 145.283 26.3499C145.36 29.785 146.396 32.8891 148.699 35.4855C150.682 37.7208 153.192 39.0923 156.14 39.5282C157.698 39.7582 159.298 39.7737 160.859 39.3971C161.273 39.2971 161.574 39.4165 161.86 39.6883C163.267 41.0229 164.678 42.3537 166.085 43.6883C166.155 43.7543 166.2 43.8465 166.357 44.0697H166.358Z" fill="url(#paint0_linear_24891_2746)"></path>
  <path d="M0 5.64353C0.310692 5.62994 0.530118 5.61247 0.750515 5.61149C2.40689 5.60955 4.06327 5.60761 5.72062 5.61149C6.58765 5.61344 6.59541 5.61926 6.59541 6.4773C6.59735 10.7034 6.59541 14.9295 6.59541 19.1556C6.59541 22.1461 6.59541 25.1366 6.59541 28.1272V29.0648C6.85173 28.8571 6.99057 28.7687 7.09834 28.6542C10.7276 24.7727 14.3549 20.8892 17.9813 17.0038C18.2998 16.6621 18.6571 16.501 19.1522 16.5078C21.2533 16.5359 23.3553 16.5175 25.4573 16.5223C25.6865 16.5223 25.9146 16.5621 26.1438 16.5835L26.1962 16.7504C22.4961 20.5407 18.7969 24.331 15.0259 28.1951C18.8813 33.8277 22.8077 39.3971 26.7215 45.1044C26.3962 45.1296 26.1816 45.1597 25.968 45.1597C23.9155 45.1636 21.864 45.151 19.8115 45.1704C19.3377 45.1753 19.0678 44.9967 18.7978 44.6074C16.1511 40.789 13.4811 36.987 10.816 33.1812C10.749 33.0861 10.6645 33.0036 10.5529 32.8745C9.88681 33.5423 9.24503 34.1742 8.61685 34.8177C8.08479 35.3622 7.58963 35.9436 7.03621 36.4648C6.69736 36.7842 6.58667 37.1307 6.58959 37.5782C6.60318 39.7776 6.59541 41.977 6.59541 44.1765C6.59541 44.4463 6.59541 44.7162 6.59541 45.05C5.83713 45.2587 5.09826 45.1364 4.37396 45.1578C3.65743 45.1782 2.93992 45.1626 2.22339 45.1626H0V5.64353Z" fill="url(#paint1_linear_24891_2746)"></path>
  <path d="M111.511 33.1822C111.898 35.734 112.935 37.75 114.99 39.0962C117.218 40.556 119.676 40.7599 122.243 40.162C124.027 39.7465 125.47 38.7517 126.843 37.6131C126.956 37.519 127.063 37.4199 127.177 37.3268C127.251 37.2656 127.33 37.2122 127.467 37.1113C128.791 38.1256 129.965 39.3049 131.251 40.3959C130.81 41.1384 130.189 41.6674 129.583 42.1935C128.352 43.2641 126.991 44.1454 125.477 44.7695C124.052 45.3568 122.549 45.6489 121.021 45.7751C118.678 45.9692 116.372 45.7013 114.176 44.8637C111.072 43.6795 108.611 41.6927 106.937 38.7798C105.619 36.4852 104.927 34.0257 104.97 31.3807C104.992 30.1247 104.995 28.8454 105.235 27.6215C105.896 24.2689 107.482 21.4007 110.106 19.1624C111.487 17.9851 113.048 17.0901 114.783 16.5689C115.744 16.2806 116.756 16.105 117.756 16.0283C119.51 15.8953 121.265 15.971 122.97 16.4767C124.372 16.8931 125.677 17.5221 126.859 18.3869C129.053 19.9923 130.525 22.1306 131.446 24.6678C132.35 27.1575 132.711 29.7287 132.587 32.3717C132.55 33.154 132.533 33.1802 131.707 33.1812C128.642 33.1841 125.577 33.1822 122.512 33.1822C119.175 33.1822 115.838 33.1822 112.501 33.1822C112.209 33.1822 111.919 33.1822 111.511 33.1822ZM111.408 28.8377H126.047C126.035 28.6028 126.055 28.4077 126.011 28.2262C125.841 27.5098 125.705 26.7799 125.46 26.0898C124.938 24.6261 124.08 23.3895 122.767 22.5121C121.682 21.787 120.503 21.3667 119.178 21.3328C117.972 21.3017 116.815 21.456 115.74 22.0083C113.482 23.1682 112.271 25.1124 111.683 27.5079C111.58 27.9262 111.508 28.3514 111.409 28.8367L111.408 28.8377Z" fill="url(#paint2_linear_24891_2746)"></path>
  <path d="M51.1789 37.1142C52.409 38.1984 53.6382 39.2835 54.945 40.4357C54.5974 40.8103 54.2955 41.152 53.977 41.4791C52.5517 42.9418 50.8759 44.0484 48.9972 44.8229C47.5991 45.3995 46.1107 45.6625 44.6058 45.78C42.2863 45.9605 40.0075 45.6936 37.8356 44.8685C34.5432 43.6174 32.0043 41.4655 30.3295 38.3304C28.9051 35.6641 28.4313 32.8133 28.6071 29.8287C28.8216 26.1898 30.1023 22.9896 32.5752 20.2913C34.2073 18.5111 36.1967 17.2348 38.491 16.5408C40.9882 15.7856 43.5426 15.7691 46.1 16.3758C48.7788 17.0115 50.9798 18.3966 52.7401 20.4912C53.843 21.8035 54.6246 23.3031 55.1878 24.9173C56.0101 27.2749 56.3247 29.7064 56.2247 32.196C56.2189 32.3445 56.2043 32.4921 56.2033 32.6406C56.2024 33.0007 56.0451 33.1948 55.6655 33.1812C55.4431 33.1725 55.2208 33.1822 54.9984 33.1822C48.7205 33.1822 42.4436 33.1822 36.1656 33.1822H35.184C35.2161 34.1567 35.5171 34.9652 35.8579 35.7446C36.7035 37.6762 38.1016 39.0739 40.0736 39.8514C41.5969 40.4522 43.1785 40.5861 44.8029 40.3765C47.0117 40.0911 48.8409 39.0525 50.4788 37.6082C50.6264 37.4782 50.7759 37.3481 50.9274 37.2229C50.9633 37.1928 51.0157 37.1831 51.1779 37.1142H51.1789ZM49.5963 28.8318C49.639 28.7183 49.6914 28.6474 49.6846 28.5824C49.5312 27.1196 49.1399 25.7258 48.3224 24.4951C46.9088 22.3684 44.9233 21.2968 42.3406 21.3337C40.3571 21.3619 38.7085 22.0821 37.3637 23.5361C36.353 24.628 35.7268 25.9258 35.353 27.3409C35.2287 27.8107 34.9928 28.3155 35.2044 28.8328H49.5963V28.8318Z" fill="url(#paint3_linear_24891_2746)"></path>
  <path d="M78.3483 38.937C78.3804 39.201 78.4212 39.3874 78.4212 39.5738C78.427 40.9074 78.4066 42.242 78.4328 43.5757C78.4435 44.0823 78.2153 44.3056 77.7813 44.5094C75.3744 45.6392 72.8763 45.8644 70.2723 45.4305C68.8237 45.1889 67.5294 44.6861 66.4381 43.6912C65.3964 42.7419 64.8459 41.5286 64.5128 40.1901C64.2546 39.1496 64.2196 38.0936 64.2206 37.0297C64.2254 32.4105 64.2225 27.7903 64.2225 23.1711C64.2225 22.8799 64.2225 22.5888 64.2225 22.2316C63.9196 22.2063 63.6827 22.1723 63.4458 22.1704C62.704 22.1626 61.9632 22.1762 61.2214 22.1636C60.6748 22.1539 60.5932 22.0889 60.5894 21.5812C60.5767 20.0991 60.5767 18.6169 60.5894 17.1348C60.5932 16.6058 60.6729 16.534 61.1962 16.5243C61.937 16.5097 62.6788 16.5243 63.4205 16.5175C63.6604 16.5155 63.8992 16.4893 64.2206 16.4699V8.84563C64.8633 8.67189 69.9645 8.64568 70.817 8.81166C70.8451 10.0618 70.8257 11.3382 70.8296 12.6146C70.8325 13.8706 70.8296 15.1266 70.8296 16.4621C71.1548 16.4845 71.416 16.5165 71.6772 16.5175C73.654 16.5214 75.6317 16.5184 77.6085 16.5214C77.8736 16.5214 78.1396 16.5437 78.4503 16.5573V22.1636H70.884C70.8626 22.516 70.8325 22.778 70.8315 23.0401C70.8286 27.339 70.8276 31.6369 70.8325 35.9359C70.8325 36.6997 70.8471 37.4656 71.1937 38.177C71.5617 38.9322 72.1617 39.3864 72.9675 39.6019C74.4618 39.9999 75.9016 39.7378 77.3289 39.2709C77.6473 39.1671 77.9658 39.0622 78.3464 38.938L78.3483 38.937Z" fill="url(#paint4_linear_24891_2746)"></path>
  <path d="M93.0439 16.5272H100.727C100.743 18.4257 100.733 20.2388 100.734 22.1607H93.0323C93.0323 22.5324 93.0323 22.7955 93.0323 23.0595C93.0323 27.3341 93.0323 31.6088 93.0323 35.8825C93.0323 36.6745 93.076 37.4597 93.4265 38.1935C93.7906 38.9555 94.4042 39.3903 95.2091 39.6058C96.7062 40.0076 98.1432 39.7232 99.5685 39.2583C99.8675 39.1612 100.167 39.0642 100.52 38.9496C100.56 39.1593 100.615 39.3175 100.616 39.4757C100.623 40.8589 100.605 42.243 100.63 43.6261C100.637 44.1037 100.416 44.3114 100.011 44.5026C97.6063 45.6373 95.1071 45.8644 92.5022 45.4334C91.3109 45.2364 90.2108 44.8685 89.2331 44.1687C87.8651 43.1894 87.1311 41.813 86.7379 40.2037C86.4708 39.1088 86.4475 38.0052 86.4466 36.8948C86.4417 32.3241 86.4446 27.7535 86.4446 23.1818C86.4446 22.8906 86.4446 22.5994 86.4446 22.2345C86.1145 22.2083 85.8543 22.1723 85.5941 22.1694C84.8523 22.1607 84.1106 22.1782 83.3698 22.1607C82.8785 22.149 82.7998 22.0753 82.7959 21.5958C82.7843 20.0884 82.7833 18.581 82.7959 17.0746C82.7998 16.6204 82.9018 16.534 83.3882 16.5233C84.1047 16.5078 84.8222 16.5184 85.5388 16.5184C85.8048 16.5184 86.0708 16.5184 86.431 16.5184V8.86309C87.066 8.66605 92.1594 8.63694 93.0177 8.81942C93.0527 11.3246 93.0109 13.857 93.042 16.5262L93.0439 16.5272Z" fill="url(#paint5_linear_24891_2746)"></path>
  <path d="M157.989 32.296C159.454 30.7478 160.912 29.2084 162.427 27.6088C167.547 32.5649 172.59 37.4471 177.678 42.374C177.529 42.5594 177.408 42.7332 177.264 42.8846C176.14 44.0542 175.015 45.2218 173.886 46.3856C173.414 46.8719 173.393 46.869 172.892 46.3953C169.602 43.2922 166.314 40.1891 163.025 37.0851C161.437 35.5864 159.849 34.0878 158.262 32.5872C158.192 32.5212 158.13 32.4464 157.99 32.296H157.989Z" fill="url(#paint6_linear_24891_2746)"></path>
  <defs>
    <linearGradient id="paint0_linear_24891_2746" x1="89" y1="5.60925" x2="89" y2="46.7505" gradientUnits="userSpaceOnUse">
      <stop stop-color="#C9CBCF"></stop>
      <stop offset="1" stop-color="#94979E"></stop>
    </linearGradient>
    <linearGradient id="paint1_linear_24891_2746" x1="89" y1="5.60925" x2="89" y2="46.7505" gradientUnits="userSpaceOnUse">
      <stop stop-color="#C9CBCF"></stop>
      <stop offset="1" stop-color="#94979E"></stop>
    </linearGradient>
    <linearGradient id="paint2_linear_24891_2746" x1="89" y1="5.60925" x2="89" y2="46.7505" gradientUnits="userSpaceOnUse">
      <stop stop-color="#C9CBCF"></stop>
      <stop offset="1" stop-color="#94979E"></stop>
    </linearGradient>
    <linearGradient id="paint3_linear_24891_2746" x1="89" y1="5.60925" x2="89" y2="46.7505" gradientUnits="userSpaceOnUse">
      <stop stop-color="#C9CBCF"></stop>
      <stop offset="1" stop-color="#94979E"></stop>
    </linearGradient>
    <linearGradient id="paint4_linear_24891_2746" x1="89" y1="5.60925" x2="89" y2="46.7505" gradientUnits="userSpaceOnUse">
      <stop stop-color="#C9CBCF"></stop>
      <stop offset="1" stop-color="#94979E"></stop>
    </linearGradient>
    <linearGradient id="paint5_linear_24891_2746" x1="89" y1="5.60925" x2="89" y2="46.7505" gradientUnits="userSpaceOnUse">
      <stop stop-color="#C9CBCF"></stop>
      <stop offset="1" stop-color="#94979E"></stop>
    </linearGradient>
    <linearGradient id="paint6_linear_24891_2746" x1="89" y1="5.60925" x2="89" y2="46.7505" gradientUnits="userSpaceOnUse">
      <stop stop-color="#C9CBCF"></stop>
      <stop offset="1" stop-color="#94979E"></stop>
    </linearGradient>
  </defs>
</svg>
