<?xml version="1.0" encoding="UTF-8"?>
<svg xmlns="http://www.w3.org/2000/svg" width="159" height="40" viewBox="0 0 159 40" fill="none">
  <path d="M43.2939 25.7002H43.6985L45.5187 27.434C47.3394 29.1677 48.3795 29.9767 50.2866 29.9767C52.6848 29.9767 54.1006 28.7921 54.1006 26.7118C54.1006 25.0935 53.3493 24.1976 51.7601 23.3309C50.1998 22.493 47.8304 21.8862 46.2124 20.8746C44.6232 19.8634 43.785 18.3607 43.785 16.2225C43.785 13.0729 46.2124 10.5302 50.2866 10.5302C51.4713 10.5302 52.5691 10.7324 53.9561 10.7324H55.4587L56.8168 15.067H56.3835L54.534 13.3044C52.656 11.5126 51.7024 11.1373 50.2578 11.1373C48.2929 11.1373 46.9637 12.2639 46.9637 14.0265C46.9637 15.3558 47.6859 16.2805 49.102 17.003C50.5177 17.754 52.9159 18.4187 54.6209 19.4012C56.3258 20.4124 57.2502 21.7705 57.2502 24.1687C57.2502 27.7228 54.4763 30.5835 50.1709 30.5835C48.6683 30.5835 47.3102 30.3812 45.8367 30.3812H44.6232L43.2939 25.7002ZM72.969 30.452V30.5966H67.1324V30.4524L67.9703 29.152V21.3503C67.9703 19.5877 66.8722 18.9809 65.5141 18.9809C64.6762 18.9809 64.0406 19.212 63.6361 19.472V29.152L64.474 30.452V30.5966H58.6659V30.4524L59.533 29.152V12.8261L58.4925 10.9478V10.8036L63.6361 9.93652V19.0675C64.5897 17.7671 66.1789 16.467 68.2883 16.467C70.6865 16.467 72.1023 18.085 72.1023 20.4832V29.1523L72.969 30.452ZM86.781 27.0137C86.0588 28.9206 84.1805 30.8854 80.7999 30.8854C76.7544 30.8854 74.1251 28.025 74.1251 23.9796C74.1251 19.7031 76.9855 16.467 80.8864 16.467C84.1517 16.467 86.3765 18.5472 86.6656 21.6679H77.708C77.7369 25.28 79.2972 27.9093 83.0247 27.9093C84.6139 27.9093 85.8274 27.4182 86.5499 26.8111L86.781 27.0137ZM77.708 21.0903H82.3891C82.2445 18.3161 81.58 17.1026 80.1351 17.1026C78.6905 17.1026 77.7946 18.2584 77.708 21.09M101.951 22.5061C101.951 27.0714 98.4547 30.5966 94.525 30.5966H92.6755V35.3353L93.6003 36.6357V36.7799H87.7057V36.6357L88.5724 35.3353V18.7206L87.7345 16.9004V16.7561H92.6755V19.0966C93.5137 17.7382 94.9006 16.467 97.0097 16.467C99.9862 16.467 101.951 19.0963 101.951 22.5061ZM98.079 24.8755C98.079 21.2057 97.0389 19.0386 94.4093 19.0386C93.6003 19.0386 93.0512 19.2409 92.6755 19.5008V28.5449L96.3741 29.7587C97.4146 29.094 98.079 27.4471 98.079 24.8755ZM117.496 30.452V30.5966H111.66V30.4524L112.498 29.152V21.3503C112.498 19.5877 111.4 18.9809 110.042 18.9809C109.204 18.9809 108.568 19.212 108.163 19.472V29.152L109.001 30.452V30.5966H103.193V30.4524L104.06 29.152V12.8261L103.02 10.9478V10.8036L108.163 9.93652V19.0675C109.117 17.7671 110.706 16.467 112.815 16.467C115.214 16.467 116.63 18.085 116.63 20.4832V29.1523L117.496 30.452ZM131.308 27.0137C130.586 28.9206 128.708 30.8854 125.327 30.8854C121.282 30.8854 118.652 28.025 118.652 23.9796C118.652 19.7031 121.513 16.467 125.414 16.467C128.679 16.467 130.904 18.5472 131.193 21.6679H122.235C122.264 25.28 123.825 27.9093 127.552 27.9093C129.141 27.9093 130.355 27.4182 131.077 26.8111L131.308 27.0137ZM122.235 21.0903H126.917C126.772 18.3161 126.107 17.1026 124.663 17.1026C123.218 17.1026 122.322 18.2584 122.235 21.09M141.884 16.6407V20.8596H138.243C137.839 20.8596 137.492 20.9169 137.232 21.0326V29.1523L138.157 30.4524V30.5966H132.233V30.4524L133.1 29.1523V18.721L132.291 16.9007V16.7565H137.232V20.5993C138.07 18.6921 139.486 16.6407 141.566 16.6407H141.884ZM156.563 30.452V30.5966H152.315L151.795 28.025C150.986 29.7007 149.57 30.8857 147.547 30.8857C144.571 30.8857 142.462 28.3426 142.462 24.7886C142.462 20.1076 145.987 16.8715 150.177 16.6404L151.708 16.5535V12.8264L150.697 10.9481V10.8036L155.841 9.93652V27.765L156.563 30.452ZM151.708 27.7359V18.7787L147.865 17.7382C146.883 18.5184 146.363 20.1944 146.363 22.4192C146.363 26.2624 147.547 28.2849 149.917 28.2849C150.639 28.2849 151.275 28.0827 151.708 27.7359Z" fill="url(#paint0_linear_8419_14920)"></path>
  <path d="M21.7678 4L10.8838 14.884H21.7678V25.7684L32.6519 14.884V4H21.7678Z" fill="url(#paint1_linear_8419_14920)" fill-opacity="0.6"></path>
  <path d="M10.884 36.6524L21.7684 25.7681H10.884V14.884L0 25.7681V36.6524H10.884Z" fill="url(#paint2_linear_8419_14920)"></path>
  <defs>
    <linearGradient id="paint0_linear_8419_14920" x1="99.9283" y1="9.93652" x2="99.9283" y2="36.7799" gradientUnits="userSpaceOnUse">
      <stop stop-color="#C9CBCF"></stop>
      <stop offset="1" stop-color="#94979E"></stop>
    </linearGradient>
    <linearGradient id="paint1_linear_8419_14920" x1="21.7678" y1="4" x2="21.7678" y2="25.7684" gradientUnits="userSpaceOnUse">
      <stop stop-color="#C9CBCF"></stop>
      <stop offset="1" stop-color="#94979E"></stop>
    </linearGradient>
    <linearGradient id="paint2_linear_8419_14920" x1="10.8842" y1="14.884" x2="10.8842" y2="36.6524" gradientUnits="userSpaceOnUse">
      <stop stop-color="#C9CBCF"></stop>
      <stop offset="1" stop-color="#94979E"></stop>
    </linearGradient>
  </defs>
</svg>
