<?xml version="1.0" encoding="UTF-8"?>
<svg xmlns="http://www.w3.org/2000/svg" width="131" height="40" viewBox="0 0 131 40" fill="none">
  <path fill-rule="evenodd" clip-rule="evenodd" d="M0 8.26239V30.8872V30.8943C0.021963 31.4723 0.256619 32.0189 0.654807 32.4196C1.053 32.8204 1.58381 33.0444 2.13606 33.0444C2.68832 33.0444 3.21914 32.8204 3.61732 32.4196C4.0155 32.0189 4.25017 31.4723 4.27213 30.8943V13.5661L7.43141 18.1718C7.54425 18.3213 7.68172 18.4485 7.83731 18.5474C8.06595 18.6984 8.32136 18.7996 8.58823 18.8449C8.70014 18.8634 8.81321 18.8729 8.92649 18.8732C9.08359 18.8724 9.24013 18.8533 9.39327 18.8166C9.65684 18.7474 9.90573 18.6271 10.1273 18.4624C10.347 18.2939 10.5331 18.0821 10.6752 17.8388C10.8201 17.5984 10.9168 17.3295 10.9594 17.0488C11.0028 16.7685 10.9935 16.4821 10.9324 16.2055C10.8707 15.9749 10.7724 15.7569 10.6414 15.5607L4.49538 6.73541C4.18667 6.2917 3.75196 5.96156 3.25337 5.79213C2.75477 5.6227 2.21782 5.62268 1.7192 5.79204C1.22059 5.96141 0.785854 6.29151 0.477092 6.73517C0.16833 7.17884 0.00134153 7.71337 0 8.26239ZM21.8049 30.4398V7.8151C21.7829 7.23712 21.5483 6.69047 21.1501 6.28968C20.7518 5.88889 20.221 5.66504 19.6688 5.66504C19.1165 5.66504 18.5857 5.88889 18.1876 6.28968C17.7894 6.69047 17.5547 7.23712 17.5327 7.8151V25.1504L14.3734 20.5446C14.2606 20.3951 14.1232 20.2679 13.9676 20.169C13.7389 20.018 13.4836 19.9168 13.2166 19.8715C13.1047 19.8531 12.9916 19.8436 12.8784 19.8431C12.7213 19.844 12.5648 19.8631 12.4117 19.8999C12.1481 19.9693 11.8991 20.0893 11.6776 20.2541C11.4579 20.4226 11.2717 20.6344 11.1296 20.8777C10.9848 21.1181 10.888 21.3869 10.8455 21.6676C10.8022 21.9479 10.8113 22.2343 10.8726 22.5109C10.9342 22.7414 11.0325 22.9594 11.1634 23.1557L17.3095 31.981C17.6189 32.4257 18.0548 32.7563 18.5547 32.9255C19.0546 33.0944 19.5928 33.0933 20.0922 32.9222C20.5914 32.751 21.0261 32.4187 21.3338 31.9726C21.6414 31.5267 21.8064 30.9901 21.8049 30.4398ZM35.54 33.6647C29.7897 33.6647 25.91 29.7676 25.91 23.936C25.91 17.9592 29.9081 13.6227 35.4115 13.6227C40.8507 13.6227 44.3616 17.3356 44.3616 23.0821C44.3616 23.4969 44.2047 23.8946 43.9249 24.1881C43.6453 24.4818 43.2658 24.6472 42.8699 24.6481H30.2396L30.2634 25.0236C30.3274 26.4776 30.9342 27.8469 31.9526 28.8367C32.9712 29.8267 34.3202 30.3582 35.7091 30.3167C37.8909 30.3167 39.3893 29.5089 40.2857 27.8367C40.4148 27.6067 40.5993 27.4164 40.8208 27.2846C41.0422 27.1527 41.2928 27.0842 41.5474 27.0855C41.6014 27.0821 41.6557 27.0821 41.7098 27.0855L42.1801 27.1317C42.4232 27.1589 42.6564 27.2478 42.8596 27.3902C43.0629 27.5329 43.2301 27.725 43.3469 27.95C43.4636 28.1766 43.5247 28.4296 43.5247 28.687C43.5247 28.9442 43.4636 29.1975 43.3469 29.4239C41.8857 32.1625 39.1154 33.6647 35.54 33.6647ZM35.3709 16.8503C32.7022 16.8503 30.9736 18.4906 30.3513 21.5941L30.2668 22.0192H40.076L40.0456 21.6367C39.8967 19.4295 38.5606 16.8503 35.3709 16.8503ZM47.3825 23.6671C47.3825 29.5517 51.3095 33.665 56.9313 33.665C62.5767 33.665 66.5174 29.5979 66.5174 23.6846C66.5174 17.7716 62.5531 13.6407 56.9313 13.6407C51.3095 13.6407 47.3825 17.7823 47.3825 23.6671ZM51.8575 23.6671C51.8575 19.4757 53.7551 16.9746 56.9313 16.9746C60.0839 16.9746 62.0389 19.5006 62.0389 23.6671C62.0389 27.8335 60.1075 30.3134 56.9313 30.3134C53.7551 30.3134 51.8575 27.8582 51.8575 23.6671ZM72.369 33.1261C72.0386 33.1262 71.7114 33.058 71.4061 32.9256C71.1006 32.793 70.8234 32.5987 70.5898 32.3539C70.1204 31.8578 69.8555 31.1886 69.8525 30.4903C69.8525 29.7912 70.1176 29.1208 70.5896 28.6264C71.0614 28.132 71.7017 27.8543 72.369 27.8543C73.0365 27.8543 73.6765 28.132 74.1486 28.6264C74.6205 29.1208 74.8858 29.7912 74.8858 30.4903C74.8844 31.1891 74.6193 31.8589 74.1483 32.3539C73.9151 32.5992 73.6378 32.7938 73.3324 32.9263C73.027 33.059 72.6997 33.1268 72.369 33.1261ZM80.9182 32.4127C81.3538 32.8689 81.9443 33.1256 82.5603 33.1266C82.8656 33.1271 83.168 33.0644 83.4502 32.9422C83.7323 32.8202 83.9887 32.6408 84.2045 32.4147C84.4205 32.1886 84.5917 31.92 84.7082 31.6246C84.8248 31.3291 84.8847 31.0123 84.8842 30.6925V14.3741C84.8842 13.7286 84.6394 13.1095 84.2036 12.653C83.7677 12.1966 83.1767 11.9402 82.5603 11.9402C81.9441 11.9402 81.353 12.1966 80.9172 12.653C80.4814 13.1095 80.2366 13.7286 80.2366 14.3741V30.6925C80.2374 31.3378 80.4826 31.9563 80.9182 32.4127ZM71.9629 9.4991C72.2038 9.60517 72.4627 9.6594 72.7239 9.65853H92.5152C93.0418 9.65575 93.5463 9.43537 93.9186 9.0453C94.291 8.65522 94.5015 8.12697 94.504 7.57532C94.5038 7.33168 94.4576 7.09051 94.3683 6.86557C94.2789 6.64063 94.1479 6.43637 93.9832 6.26446C93.8186 6.09424 93.6247 5.95838 93.4115 5.86411C93.1968 5.77249 92.9669 5.72556 92.735 5.72595H72.5041C72.0352 5.72753 71.5857 5.92223 71.2526 6.26801C71.0886 6.43913 70.9587 6.64264 70.8704 6.86675C70.7827 7.09175 70.7365 7.33226 70.7351 7.57532C70.7365 8.1276 70.9455 8.65707 71.317 9.04917C71.5026 9.24127 71.7219 9.39403 71.9629 9.4991ZM97.9141 33.6226C94.1932 33.6226 91.9473 31.72 91.9473 28.5314C91.9473 25.4349 94.0072 23.6812 98.834 22.6749L104.246 21.5554V20.8185C104.246 18.3386 102.927 16.9213 100.627 16.9213C99.0505 16.9213 97.843 17.6299 97.1292 18.9515C96.9505 19.3012 96.6776 19.5881 96.3445 19.7769C96.0594 19.9368 95.7411 20.0208 95.4177 20.0214C95.3647 20.025 95.3116 20.025 95.2587 20.0214C94.757 19.9814 94.2904 19.7359 93.9605 19.3378C93.6305 18.9398 93.4638 18.4216 93.4964 17.8957C93.5176 17.547 93.6273 17.2106 93.8144 16.9213C95.2385 14.7744 97.6604 13.6407 100.813 13.6407C105.789 13.6407 108.528 16.2092 108.528 20.8716V31.0397C108.537 31.5418 108.38 32.0313 108.081 32.425C107.826 32.7475 107.482 32.98 107.096 33.0909C106.711 33.2018 106.301 33.1859 105.925 33.045C105.548 32.9043 105.221 32.6456 104.989 32.304C104.757 31.9625 104.631 31.5544 104.628 31.1354V30.0087C104.628 29.8848 104.439 29.8423 104.364 30.0087C103.316 32.1451 100.593 33.6226 97.9141 33.6226ZM100.282 24.9247C98.1948 25.3888 96.2227 25.8282 96.2227 28.1132C96.2227 29.6438 97.3492 30.5933 99.1621 30.5933C102.105 30.5933 104.236 28.2089 104.236 24.9247V24.0143L100.282 24.9247ZM113.037 32.845C113.318 33.0291 113.643 33.1267 113.974 33.1268C114.249 33.1288 114.521 33.0644 114.769 32.9384C115.016 32.8124 115.233 32.6284 115.402 32.4005L119.799 26.3422L124.196 32.365C124.363 32.5937 124.578 32.7782 124.825 32.9036C125.071 33.03 125.343 33.0954 125.617 33.0949H126.06C126.391 33.096 126.716 32.9992 126.996 32.8155C127.277 32.6318 127.502 32.3689 127.646 32.0569C127.793 31.7451 127.852 31.3961 127.815 31.0507C127.781 30.7063 127.656 30.3787 127.454 30.1047L122.271 23.1571L126.706 17.1094C126.901 16.8348 127.018 16.5082 127.045 16.167C127.076 15.8249 127.015 15.4801 126.872 15.1715C126.724 14.8573 126.495 14.5933 126.212 14.4101C125.927 14.227 125.599 14.1323 125.265 14.137C124.99 14.136 124.717 14.2032 124.471 14.3331C124.225 14.463 124.011 14.6519 123.848 14.8845L120.073 20.1989L116.352 14.9058C116.188 14.6741 115.975 14.4851 115.73 14.3531C115.481 14.2222 115.209 14.1542 114.931 14.1547H114.467C114.142 14.1553 113.823 14.2497 113.544 14.4275C113.262 14.6075 113.035 14.8681 112.888 15.1786C112.741 15.4879 112.678 15.8343 112.709 16.1787C112.74 16.523 112.861 16.8516 113.06 17.1272L117.617 23.4016L112.58 30.133C112.376 30.4066 112.25 30.7348 112.216 31.08C112.18 31.4253 112.239 31.7738 112.384 32.0858C112.53 32.398 112.756 32.6611 113.037 32.845Z" fill="url(#paint0_linear_7474_28845)"></path>
  <defs>
    <linearGradient id="paint0_linear_7474_28845" x1="63.9129" y1="5.66504" x2="63.9129" y2="33.665" gradientUnits="userSpaceOnUse">
      <stop stop-color="#C9CBCF"></stop>
      <stop offset="1" stop-color="#94979E"></stop>
    </linearGradient>
  </defs>
</svg>
