<svg xmlns="http://www.w3.org/2000/svg" width="110" height="30"><path fill="#FFF" d="m25.855 20.367-.015-.05 9.789-8.928V7.088H19.923v4.301h9.382l.015.042-9.695 8.936v4.301h16.162v-4.301ZM45.427 6.678c-1.812 0-3.288.272-4.429.817a5.797 5.797 0 0 0-2.571 2.244 8.162 8.162 0 0 0-1.078 3.244l4.766.668c.172-1.011.516-1.729 1.034-2.151a3.163 3.163 0 0 1 2.048-.631c.967 0 1.669.258 2.105.773.431.515.651 1.228.651 2.169v.468h-4.581c-2.333 0-4.008.515-5.027 1.546-1.019 1.03-1.528 2.391-1.526 4.08 0 1.731.509 3.02 1.526 3.864 1.017.845 2.295 1.265 3.837 1.259 1.912 0 3.382-.654 4.411-1.965a7.306 7.306 0 0 0 1.275-2.707h.173l.657 4.302h4.318V13.764c0-2.251-.596-3.995-1.787-5.231-1.191-1.237-3.125-1.855-5.802-1.855Zm1.51 13.429c-.685.569-1.583.852-2.699.852-.921 0-1.561-.161-1.919-.482a1.573 1.573 0 0 1-.541-1.224c-.02-.44.142-.87.448-1.187.332-.31.775-.471 1.228-.446h4.506v.296a2.727 2.727 0 0 1-1.023 2.191ZM79.125 7.088h-5.101v17.583h5.101Zm30.119 0c-1.441 0-2.577.506-3.408 1.519-.596.729-1.049 1.804-1.36 3.228h-.15l-.667-4.747h-4.357v17.58h5.102v-9.016c0-1.136.267-2.007.802-2.614.533-.606 1.52-.91 2.958-.91h1.936v-5.04Zm-15 .575c-1.191-.706-2.693-1.058-4.506-1.057-2.855 0-5.089.81-6.702 2.43-1.614 1.619-2.421 3.851-2.421 6.697a10.631 10.631 0 0 0 1.099 4.968 7.908 7.908 0 0 0 3.129 3.285c1.351.778 2.959 1.168 4.822 1.169 1.612 0 2.959-.247 4.039-.742a6.477 6.477 0 0 0 2.57-2.021 8.803 8.803 0 0 0 1.396-2.875l-4.395-1.226a4.058 4.058 0 0 1-1.034 1.782c-.497.494-1.329.742-2.496.742-1.387 0-2.422-.396-3.102-1.187-.494-.572-.805-1.389-.941-2.448h12.036c.049-.494.074-.909.074-1.244v-1.094a9.714 9.714 0 0 0-.891-4.266 6.686 6.686 0 0 0-2.677-2.913Zm-4.654 3.134c2.069 0 3.242 1.014 3.519 3.043h-7.317a4.178 4.178 0 0 1 .819-1.858c.671-.791 1.664-1.187 2.979-1.185ZM76.629.002A2.87 2.87 0 0 0 74.542.8a2.755 2.755 0 0 0-.82 2.061 2.786 2.786 0 0 0 .821 2.077 2.808 2.808 0 0 0 2.086.815 2.76 2.76 0 0 0 2.068-.816c.54-.555.828-1.305.799-2.076a2.725 2.725 0 0 0-.799-2.058 2.752 2.752 0 0 0-2.066-.799ZM66.091 6.606c-1.737 0-3.133.544-4.189 1.631-.781.805-1.353 2.007-1.719 3.606h-.163l-.667-4.747h-4.357v22.627h5.102v-9.32h.186c.156.621.374 1.226.652 1.803a5.114 5.114 0 0 0 2.03 2.262 5.992 5.992 0 0 0 3.014.724c2.137 0 3.763-.829 4.879-2.487 1.118-1.657 1.676-3.969 1.676-6.936 0-2.866-.54-5.11-1.621-6.73-1.081-1.622-2.688-2.433-4.823-2.433Zm.518 12.74c-.595.859-1.526 1.289-2.793 1.289a3.296 3.296 0 0 1-2.735-1.245c-.661-.826-.99-1.956-.989-3.392v-.335c0-1.458.33-2.574.989-3.348.657-.775 1.57-1.158 2.735-1.149 1.29 0 2.226.407 2.811 1.224.584.815.876 1.952.876 3.412.004 1.509-.292 2.691-.89 3.544Zm-48.959 1.02H0v4.307h17.65Z"/></svg>