<svg xmlns="http://www.w3.org/2000/svg" width="138" height="40" fill="none"><g clip-path="url(#a)"><path fill="url(#b)" d="m56.44 21.123 6.985-9.07h-4.287l-6.472 8.243v-8.244h-3.722v18.673h3.722v-8.748l6.742 8.75h4.287l-7.254-9.604m21.906 7.95c1.375-1.36 2.077-3.041 2.077-5.016 0-1.973-.702-3.628-2.077-4.988s-3.074-2.055-5.07-2.055c-1.995 0-3.694.695-5.07 2.055-1.374 1.36-2.049 3.015-2.049 4.988s.675 3.655 2.05 5.015c1.375 1.361 3.074 2.028 5.07 2.028 1.995 0 3.694-.667 5.07-2.028m-7.685-2.375c-.674-.694-1.025-1.574-1.025-2.641s.35-1.948 1.025-2.64c.7-.695 1.563-1.041 2.616-1.041 1.051 0 1.914.347 2.615 1.04q1.052 1.04 1.052 2.641t-1.052 2.642c-.7.693-1.563 1.04-2.615 1.04s-1.915-.348-2.616-1.04m20.176-.347-3.505-8.963H83.53l5.528 12.911c-.648 1.815-1.672 2.589-3.533 2.562v3.2c3.452.187 5.717-1.493 7.12-5.335l4.907-13.338H93.83zm23.646-.88c.081-.507.135-.96.135-1.414 0-2-.647-3.654-1.942-5.015-1.267-1.36-2.912-2.028-4.88-2.028-2.077 0-3.802.668-5.124 2.028-1.321 1.334-1.996 3.015-1.996 5.015q0 3.042 2.023 5.042c1.348 1.334 3.128 2 5.366 2 2.59 0 4.558-.96 5.879-2.853l-2.804-1.6c-.675.88-1.7 1.333-3.021 1.333-2.076 0-3.344-.827-3.802-2.508zm-10.22-2.668c.404-1.707 1.672-2.693 3.533-2.693 1.591 0 2.939.88 3.344 2.693zm23.328-5.789c-1.888 0-3.344.64-4.369 1.948v-6.91h-3.478v18.673h3.478v-1.573c1.025 1.307 2.481 1.948 4.369 1.948 1.807 0 3.371-.668 4.638-2.029 1.294-1.36 1.942-3.04 1.942-5.015 0-1.973-.648-3.628-1.942-4.988-1.267-1.361-2.831-2.054-4.638-2.054m-3.317 9.765q-1.052-1.08-1.052-2.722c0-1.093.351-2 1.052-2.694.701-.72 1.592-1.067 2.67-1.067s1.969.347 2.67 1.067c.728.694 1.078 1.6 1.078 2.694s-.35 2.001-1.078 2.721q-1.052 1.041-2.67 1.04t-2.67-1.04M18.141 9.915 36.304 20.26v-8.633L18.129 1.271 0 11.64v8.645z"/><path fill="url(#c)" d="m33.398 30.668 2.906-1.69v-5.3L18.13 13.308 0 23.678V29l2.906 1.667 15.223-8.715z"/><path fill="url(#d)" d="m18.142 34.208 4.613 2.633 7.577-4.312-12.202-6.967L5.975 32.53l7.577 4.31z"/></g><defs><linearGradient id="b" x1="67.085" x2="67.085" y1="1.271" y2="36.84" gradientUnits="userSpaceOnUse"><stop stop-color="#C9CBCF"/><stop offset="1" stop-color="#94979E"/></linearGradient><linearGradient id="c" x1="67.085" x2="67.085" y1="1.271" y2="36.84" gradientUnits="userSpaceOnUse"><stop stop-color="#C9CBCF"/><stop offset="1" stop-color="#94979E"/></linearGradient><linearGradient id="d" x1="67.085" x2="67.085" y1="1.271" y2="36.84" gradientUnits="userSpaceOnUse"><stop stop-color="#C9CBCF"/><stop offset="1" stop-color="#94979E"/></linearGradient><clipPath id="a"><path fill="#fff" d="M0 0h138v40H0z"/></clipPath></defs></svg>