<svg xmlns="http://www.w3.org/2000/svg" width="193" height="32" fill="none"><path fill="#5A5A5A" d="M16.598.934 36.786 21.04v10.794h-9.421v-6.913L12.702 10.317H9.656v21.517H.234V.934h16.364zm10.767 10.723V.934h9.421v10.723h-9.421zM51.95 22.383h-2.16v-13.4h2.32l6 7.84 1.74 2.5h.16l-.1-2.42v-7.92h2.16v13.4h-2.32l-6.04-7.82-1.68-2.36h-.16l.08 2.32v7.86zm17.116.2c-3.26 0-5.4-1.84-5.4-5.16 0-3.1 2.12-5.18 5.36-5.18 3.08 0 5.18 1.7 5.18 4.72 0 .36-.02.64-.08.94h-8.44c.08 1.92 1.02 2.94 3.32 2.94 2.08 0 2.94-.68 2.94-1.86v-.16h2.16v.18c0 2.12-2.08 3.58-5.04 3.58zm-.08-8.64c-2.2 0-3.16.98-3.28 2.76h6.46v-.04c0-1.84-1.06-2.72-3.18-2.72zm11.918 8.64c-3.3 0-5.52-2.1-5.52-5.16 0-3.1 2.22-5.18 5.52-5.18 3.32 0 5.54 2.08 5.54 5.18 0 3.06-2.22 5.16-5.54 5.16zm0-1.92c2.42 0 3.42-1.14 3.42-3.24 0-2.12-1-3.28-3.42-3.28-2.4 0-3.4 1.16-3.4 3.28 0 2.1 1 3.24 3.4 3.24zm9.268 1.72h-2.16v-9.94h1.98v3.08h.14c.3-1.68 1.62-3.28 4.14-3.28 2.76 0 4.12 1.86 4.12 4.16v5.98h-2.16v-5.4c0-1.86-.84-2.8-2.9-2.8-2.18 0-3.16 1.12-3.16 3.28v4.92zm14.962 0h-2.4l5.98-13.4h3.04l5.98 13.4h-2.44l-1.54-3.48h-7.08l-1.54 3.48zm4.22-9.5-1.82 4.08h5.36l-1.82-4.08-.78-1.9h-.16l-.78 1.9zm11.54 9.5h-2.16v-9.94h1.98v3.08h.14c.3-1.68 1.62-3.28 4.14-3.28 2.76 0 4.12 1.86 4.12 4.16v5.98h-2.16v-5.4c0-1.86-.84-2.8-2.9-2.8-2.18 0-3.16 1.12-3.16 3.28v4.92zm13.065.2c-2.06 0-3.36-.96-3.36-2.6 0-1.54 1.24-2.34 3.2-2.56l4.52-.48v-.58c0-1.64-.72-2.22-2.62-2.22-1.84 0-2.74.6-2.74 2.06v.08h-2.14v-.08c0-2.26 1.88-3.96 5.04-3.96s4.58 1.72 4.58 4.1v6.04h-1.98v-2.48h-.14c-.52 1.68-2.1 2.68-4.36 2.68zm-1.2-2.74c0 .8.54 1.18 1.78 1.18 2.26 0 3.78-.84 3.78-2.8l-3.9.44c-1.12.14-1.66.4-1.66 1.18zm11.768 2.54h-2.16v-13.4h2.16v13.4zm3.6 3.4h-1.42v-1.96h1.94c.88 0 1.24-.24 1.54-.92l.24-.52-4.9-9.94h2.42l2.54 5.28.98 2.38h.16l.94-2.4 2.34-5.26h2.38l-5.18 11.02c-.82 1.78-1.94 2.32-3.98 2.32zm16.737-3.4h-2.28c-2.14 0-3.46-.94-3.46-3.36v-4.78h-1.68v-1.8h1.68v-2.18h2.14v2.18h3.6v1.8h-3.6v4.66c0 1.22.56 1.54 1.8 1.54h1.8v1.94zm3.511-11.1h-2.16v-2.3h2.16v2.3zm0 11.1h-2.16v-9.94h2.16v9.94zm7.02.2c-3.28 0-5.42-2.1-5.42-5.16 0-3.1 2.14-5.18 5.42-5.18 2.98 0 5.16 1.68 5.16 4.16v.2h-2.14v-.12c0-1.54-1.12-2.3-3.06-2.3-2.24 0-3.24 1.06-3.24 3.24 0 2.14 1 3.22 3.24 3.22 1.94 0 3.06-.76 3.06-2.3v-.14h2.14v.22c0 2.48-2.18 4.16-5.16 4.16zm11.457 0c-3.2 0-5.02-1.26-5.02-3.56v-.06h2.16v.16c0 1.3.78 1.72 2.86 1.72 1.94 0 2.52-.4 2.52-1.28 0-.82-.48-1.08-1.9-1.28l-2.72-.36c-1.88-.24-3.02-1.04-3.02-2.7 0-1.74 1.58-2.98 4.64-2.98 3.04 0 4.88 1.22 4.88 3.58v.06h-2.14v-.12c0-1.18-.6-1.8-2.8-1.8-1.82 0-2.46.4-2.46 1.34 0 .78.4 1.06 1.9 1.26l2.3.32c2.36.3 3.44 1.1 3.44 2.74 0 1.86-1.84 2.96-4.64 2.96z"/></svg>