<svg xmlns="http://www.w3.org/2000/svg" width="136" height="35" fill="none"><g fill="#5A5A5A" clip-path="url(#a)"><path fill-rule="evenodd" d="M18.863 5.354A2.742 2.742 0 0 1 22.74 9.23l-6.527 6.527a6.415 6.415 0 0 1 .61-8.365l2.04-2.04zm9.33 14.728a2.741 2.741 0 1 1-3.877 3.877l-6.527-6.527a6.415 6.415 0 0 1 8.365.61l2.04 2.04zm-14.724 9.33a2.741 2.741 0 1 1-3.877-3.877l6.527-6.527a6.415 6.415 0 0 1-.61 8.364l-2.04 2.04zm-9.33-14.724a2.741 2.741 0 1 1 3.877-3.877l6.527 6.527a6.415 6.415 0 0 1-8.365-.61l-2.04-2.04zm13.267 13.927a8.622 8.622 0 0 0 2.201-6.213l3.135 3.135.024.023v2.238a2.741 2.741 0 0 1-5.36.817zm-12.473-9.99a8.622 8.622 0 0 0 6.212 2.201l-3.134 3.135-.024.023H5.75a2.741 2.741 0 0 1-.816-5.359zm22.459-2.477a8.622 8.622 0 0 0-6.212-2.2l3.134-3.135.024-.024h2.238a2.742 2.742 0 0 1 .816 5.36zM14.93 6.156a8.622 8.622 0 0 0-2.201 6.212L9.594 9.233 9.57 9.21V6.972a2.742 2.742 0 0 1 5.36-.816z" clip-rule="evenodd"/><path fill-rule="evenodd" d="M12.31 2a4.972 4.972 0 0 0-4.972 4.972v.967a4.972 4.972 0 0 0-4.777 8.326l.683.683a4.972 4.972 0 0 0 2.51 9.265h.966a4.972 4.972 0 0 0 8.326 4.777l2.04-2.039a8.622 8.622 0 0 0 2.52-6.55l3.135 3.136a4.972 4.972 0 0 0 7.032-7.032l-.684-.683a4.972 4.972 0 0 0-2.51-9.265h-.966a4.972 4.972 0 0 0-8.326-4.777l-2.04 2.039a8.622 8.622 0 0 0-2.52 6.549L9.592 9.233l-.024-.023V6.972a2.741 2.741 0 0 1 5.36-.816c.103-.115.21-.227.32-.337l1.355-1.356A4.97 4.97 0 0 0 12.31 2zm12.032 8.787-.024.023-3.134 3.135a8.621 8.621 0 0 1 6.212 2.201 2.743 2.743 0 0 0-.816-5.36h-2.238zM7.992 23.983l.023-.024 3.134-3.134a8.622 8.622 0 0 1-6.212-2.201 2.743 2.743 0 0 0 .816 5.359h2.238zm12.031 8.787a4.97 4.97 0 0 1-4.293-2.463l1.355-1.356c.11-.11.217-.222.32-.337a2.743 2.743 0 0 0 5.36-.816V25.56a4.948 4.948 0 0 0 2.23 1.27v.968a4.972 4.972 0 0 1-4.972 4.972zm2.718-27.414a2.742 2.742 0 0 0-3.877 0l-2.04 2.04a6.415 6.415 0 0 0-.61 8.364l6.527-6.527a2.741 2.741 0 0 0 0-3.877zm5.454 18.603a2.741 2.741 0 0 0 0-3.877l-2.04-2.04a6.415 6.415 0 0 0-8.364-.61l6.527 6.527a2.741 2.741 0 0 0 3.877 0zM13.47 29.414a2.742 2.742 0 0 1-3.877-3.877l6.527-6.527a6.415 6.415 0 0 1-.61 8.364l-2.04 2.04zM4.137 10.81a2.742 2.742 0 0 0 0 3.877l2.04 2.04a6.415 6.415 0 0 0 8.365.61L8.015 10.81a2.742 2.742 0 0 0-3.878 0z" clip-rule="evenodd"/><path d="M46.715 23.387h-2.16v-13.4h2.16v13.4zm4.16 0h-2.16v-9.94h1.98v3.08h.14c.3-1.68 1.62-3.28 4.14-3.28 2.76 0 4.12 1.86 4.12 4.16v5.98h-2.16v-5.4c0-1.86-.84-2.8-2.9-2.8-2.18 0-3.16 1.12-3.16 3.28v4.92zm14.525.2c-3.14 0-4.88-2.1-4.88-5.16 0-3.1 1.72-5.18 4.74-5.18 2.36 0 3.7 1.22 4.1 2.9h.12v-6.16h2.16v13.4h-1.98v-2.86h-.14c-.42 1.98-1.88 3.06-4.12 3.06zm-2.7-5.16c0 2.38 1.22 3.18 3.36 3.18 2.12 0 3.42-1 3.42-3.08v-.16c0-2.12-1.24-3.16-3.46-3.16-2.08 0-3.32.82-3.32 3.22zm13.097-6.14h-2.16v-2.3h2.16v2.3zm0 11.1h-2.16v-9.94h2.16v9.94zm7 .2c-3.26 0-5.4-1.84-5.4-5.16 0-3.1 2.12-5.18 5.36-5.18 3.08 0 5.18 1.7 5.18 4.72 0 .36-.02.64-.08.94h-8.44c.08 1.92 1.02 2.94 3.32 2.94 2.08 0 2.94-.68 2.94-1.86v-.16h2.16v.18c0 2.12-2.08 3.58-5.04 3.58zm-.08-8.64c-2.2 0-3.16.98-3.28 2.76h6.46v-.04c0-1.84-1.06-2.72-3.18-2.72zm14.518 8.44h-7.78v-13.4h7.5c2.56 0 4.1 1.18 4.1 3.3 0 1.58-.88 2.76-2.92 3v.14c2.28.26 3.4 1.5 3.4 3.26 0 2.3-1.54 3.7-4.3 3.7zm-5.64-11.46v3.68h5.06c1.5 0 2.26-.58 2.26-1.84 0-1.26-.7-1.84-2.2-1.84h-5.12zm0 5.46v4.06h5.4c1.6 0 2.38-.6 2.38-2.06 0-1.4-.8-2-2.38-2h-5.4zm15.479 6.2c-2.8 0-4.16-1.86-4.16-4.16v-5.98h2.14v5.4c0 1.86.86 2.8 2.96 2.8 2.2 0 3.22-1.12 3.22-3.28v-4.92h2.14v9.94h-1.98v-3.08h-.12c-.32 1.68-1.64 3.28-4.2 3.28zm10.422-11.3h-2.16v-2.3h2.16v2.3zm0 11.1h-2.16v-9.94h2.16v9.94zm4.16 0h-2.16v-13.4h2.16v13.4zm6.38.2c-3.14 0-4.88-2.1-4.88-5.16 0-3.1 1.72-5.18 4.74-5.18 2.36 0 3.7 1.22 4.1 2.9h.12v-6.16h2.16v13.4h-1.98v-2.86h-.14c-.42 1.98-1.88 3.06-4.12 3.06zm-2.7-5.16c0 2.38 1.22 3.18 3.36 3.18 2.12 0 3.42-1 3.42-3.08v-.16c0-2.12-1.24-3.16-3.46-3.16-2.08 0-3.32.82-3.32 3.22z"/></g><defs><clipPath id="a"><path fill="#fff" d="M.781 0h134.77v34.77H.781z"/></clipPath></defs></svg>