<svg xmlns="http://www.w3.org/2000/svg" width="139" height="31" fill="none"><g fill="#5A5A5A" clip-path="url(#a)"><path fill-rule="evenodd" d="M11.482 4.569.555 15.386A30.933 30.933 0 0 0 7.959 20.8a15.248 15.248 0 0 0 3.539 5.419c6.043 5.982 15.842 5.982 21.885 0a15.248 15.248 0 0 0 3.538-5.42 30.927 30.927 0 0 0 7.405-5.413L33.407 4.578a5.084 5.084 0 0 0-.024-.025c-6.044-5.982-15.842-5.982-21.886 0l-.015.016zM32.337 22.75a31.239 31.239 0 0 1-19.794 0 12.4 12.4 0 0 0 1.143 1.301c4.835 4.786 12.674 4.786 17.509 0 .416-.413.797-.848 1.142-1.3zM13.91 6.503a15.612 15.612 0 0 0 17.06 0c-4.774-4.497-12.285-4.497-17.06 0z" clip-rule="evenodd"/><path d="M68.308 24.207h-2.72l-1.94-2.62c-4.06-.12-6.72-2.82-6.72-6.9 0-4.18 2.78-6.9 6.98-6.9 4.24 0 7 2.72 7 6.9 0 3.46-1.88 5.9-4.92 6.66l2.32 2.86zm-4.4-4.7c3.18 0 4.72-1.48 4.72-4.82 0-3.34-1.54-4.84-4.72-4.84-3.18 0-4.7 1.5-4.7 4.84s1.52 4.82 4.7 4.82zm12.736 2.08c-2.8 0-4.16-1.86-4.16-4.16v-5.98h2.14v5.4c0 1.86.86 2.8 2.96 2.8 2.2 0 3.22-1.12 3.22-3.28v-4.92h2.14v9.94h-1.98v-3.08h-.12c-.32 1.68-1.64 3.28-4.2 3.28zm11.182 0c-2.06 0-3.36-.96-3.36-2.6 0-1.54 1.24-2.34 3.2-2.56l4.52-.48v-.58c0-1.64-.72-2.22-2.62-2.22-1.84 0-2.74.6-2.74 2.06v.08h-2.14v-.08c0-2.26 1.88-3.96 5.04-3.96s4.58 1.72 4.58 4.1v6.04h-1.98v-2.48h-.14c-.52 1.68-2.1 2.68-4.36 2.68zm-1.2-2.74c0 .8.54 1.18 1.78 1.18 2.26 0 3.78-.84 3.78-2.8l-3.9.44c-1.12.14-1.66.4-1.66 1.18zm11.768 2.54h-2.16v-9.94h1.98v3.08h.14c.3-1.68 1.62-3.28 4.14-3.28 2.76 0 4.12 1.86 4.12 4.16v5.98h-2.16v-5.4c0-1.86-.84-2.8-2.9-2.8-2.18 0-3.16 1.12-3.16 3.28v4.92zm16.665 0h-2.28c-2.14 0-3.46-.94-3.46-3.36v-4.78h-1.68v-1.8h1.68v-2.18h2.14v2.18h3.6v1.8h-3.6v4.66c0 1.22.56 1.54 1.8 1.54h1.8v1.94zm6.169 0h-2.4l5.98-13.4h3.04l5.98 13.4h-2.44l-1.54-3.48h-7.08l-1.54 3.48zm4.22-9.5-1.82 4.08h5.36l-1.82-4.08-.78-1.9h-.16l-.78 1.9zm11.54 9.5h-2.16v-13.4h2.16v13.4z"/></g><defs><clipPath id="a"><path fill="#fff" d="M.555.066h137.771v30.639H.555z"/></clipPath></defs></svg>