<svg xmlns="http://www.w3.org/2000/svg" fill="none" viewBox="0 0 116 28"><path fill="#fff" fill-rule="evenodd" d="M1.71 1C.766 1 0 1.73 0 2.628V8.05c0 .9.766 1.628 1.71 1.628h9.687v8.677H1.71c-.944 0-1.71.729-1.71 1.628v5.422c0 .899.766 1.628 1.71 1.628h7.976c.945 0 1.71-.73 1.71-1.628v-7.046h9.687c.945 0 1.71-.73 1.71-1.628v-5.425c0-.899-.765-1.628-1.71-1.628H11.4v-7.05c0-.899-.766-1.628-1.71-1.628zm107.753 3.89c0-.264-.231-.468-.527-.468h-2.169c-.296 0-.526.219-.526.468v3.005h-3.371c-.296 0-.527.22-.527.469v1.548c0 .265.231.47.527.47h3.371v4.602c0 3.52 1.742 5.149 5.493 5.149h3.057c.296 0 .526-.22.526-.469v-1.549c0-.264-.23-.468-.526-.468h-2.565c-2.04 0-2.763-.768-2.763-2.678v-4.57h5.705c.296-.018.527-.237.527-.487V8.364c0-.265-.231-.469-.527-.469h-5.705zM98.938 8.366c0-.264-.23-.469-.526-.469V7.9h-6.627c-.296 0-.527.22-.527.47v1.548c0 .264.23.469.527.469h3.929v7.263h-3.93c-.295 0-.526.22-.526.469v1.548c0 .265.23.469.527.469h11.182c.296 0 .526-.22.526-.469v-1.548c0-.265-.23-.47-.526-.47h-4.029zm.131-4.727a.514.514 0 0 0-.526-.47h-2.96c-.296 0-.526.22-.526.47v1.987c0 .265.23.469.526.469h2.96c.296 0 .526-.22.526-.469zm-13.65 14.01h3.356c.296 0 .527.202.527.469v1.548c0 .25-.23.469-.527.469H77.84c-.296 0-.526-.202-.526-.469v-1.548c0-.25.23-.47.526-.47h4.359V5.659h-3.882c-.296 0-.526-.202-.526-.469V3.64c0-.25.23-.47.526-.47h6.577c.296 0 .527.203.527.47zm-17.051-9.19c.623-.564 1.43-.798 2.548-.798 3.274 0 5.181 2.099 5.195 6.37 0 4.274-1.923 6.37-5.113 6.37-1.1 0-1.842-.266-2.45-.797l-.772-.703-.723.157.28 1.862v3.476c0 .25-.23.468-.527.468h-2.171c-.296 0-.526-.202-.526-.468V8.366c0-.25.23-.469.526-.469h1.48c.248 0 .445.155.51.36l.263.907h.707zm-1.053 7.06c0 1.519.904 2.317 2.532 2.317 1.991 0 2.88-1.19 2.895-3.833 0-2.615-.904-3.805-2.895-3.805-1.644 0-2.532.798-2.532 2.317zm-18.763-1.503c0-4.258 2.221-6.355 6.365-6.355 4.259 0 6.315 2.114 5.82 6.826h-8.995c.131 2.52 1.119 3.6 3.19 3.6 1.334 0 2.319-.438 2.665-1.361a.54.54 0 0 1 .492-.314h1.973c.33 0 .592.282.51.579-.542 2.144-2.582 3.396-5.739 3.396-4.078 0-6.281-2.097-6.281-6.37m6.35-4.147c-1.777 0-2.748.86-3.06 2.708h5.888c-.05-1.753-.938-2.708-2.829-2.708m-13.504-.72.742-.706c.641-.563 1.61-.782 2.842-.765h1.677c.296 0 .526.202.526.469v1.705c0 .25-.23.47-.526.47h-2.83c-1.741 0-2.63.75-2.63 2.19v5.135h3.767c.296 0 .527.202.527.468v1.549c0 .25-.23.469-.527.469H34.722c-.296 0-.527-.202-.527-.469v-1.549c0-.249.23-.468.527-.468h3.256v-7.263h-2.795c-.296 0-.527-.203-.527-.47V8.367c0-.25.23-.469.527-.469h4.736c.248 0 .46.14.51.36l.23.892z" clip-rule="evenodd"/></svg>