<svg xmlns="http://www.w3.org/2000/svg" width="24" height="24" fill="none"><path fill="#C9CBCF" d="M7.694 23.398v-.285l.757-.743q.11-.11.181-.195a.7.7 0 0 0 .11-.165.4.4 0 0 0 .035-.17.312.312 0 0 0-.176-.292.4.4 0 0 0-.186-.04.4.4 0 0 0-.188.044.3.3 0 0 0-.126.125.4.4 0 0 0-.044.193h-.376q0-.209.095-.361a.64.64 0 0 1 .26-.238.84.84 0 0 1 .384-.084.86.86 0 0 1 .386.082q.166.082.258.225a.6.6 0 0 1 .093.326.7.7 0 0 1-.047.24 1 1 0 0 1-.165.262 4 4 0 0 1-.33.349l-.376.382v.015h.95v.33zm1.883 0 .928-1.836v-.015H9.428v-.33h1.486v.337l-.927 1.844zm2.38.042a.76.76 0 0 1-.451-.133.85.85 0 0 1-.289-.387 1.7 1.7 0 0 1-.1-.61q0-.356.101-.608a.84.84 0 0 1 .289-.383.77.77 0 0 1 .45-.132q.262 0 .451.132a.83.83 0 0 1 .289.383q.1.252.101.608 0 .357-.101.611a.83.83 0 0 1-.289.386.76.76 0 0 1-.45.133m0-.334q.205 0 .323-.2.12-.203.12-.596 0-.261-.055-.437a.6.6 0 0 0-.153-.267.34.34 0 0 0-.235-.09q-.203 0-.321.202-.12.202-.12.592 0 .26.053.439a.6.6 0 0 0 .153.268.34.34 0 0 0 .236.09m1.941.334a.76.76 0 0 1-.451-.133.85.85 0 0 1-.289-.387 1.7 1.7 0 0 1-.1-.61q0-.356.101-.608a.84.84 0 0 1 .289-.383.77.77 0 0 1 .45-.132q.262 0 .451.132a.83.83 0 0 1 .289.383q.1.252.101.608 0 .357-.101.611a.83.83 0 0 1-.289.386.76.76 0 0 1-.45.133m0-.334q.205 0 .323-.2.12-.203.12-.596 0-.261-.055-.437a.6.6 0 0 0-.153-.267.34.34 0 0 0-.234-.09q-.204 0-.322.202-.12.202-.12.592 0 .26.053.439a.6.6 0 0 0 .153.268.34.34 0 0 0 .236.09m2.022-1.89v2.182h-.395v-1.797h-.013l-.51.326v-.362l.542-.348z"/><path fill="#C9CBCF" fill-rule="evenodd" d="M21.7 10.21A9.6 9.6 0 0 0 12.11.603h-.021A9.597 9.597 0 0 0 2.5 10.209a9.6 9.6 0 0 0 9.59 9.593c5.303.005 9.605-4.29 9.61-9.591m-6.381 4.92a9.6 9.6 0 0 0-6.437 0l-.296-1.12H7.79q.14.716.356 1.417c-.716.33-1.39.742-2.01 1.229-3.706-3.32-3.869-9.385 0-12.912a9.8 9.8 0 0 0 2 1.226l-.362 1.427.112.002.302.004h.393l.3-1.13a9.6 9.6 0 0 0 6.42.004q.105.273.167.558.049.184.095.372.022.091.047.185h.796a15 15 0 0 0-.35-1.418 10 10 0 0 0 2.007-1.227c3.665 3.268 3.907 9.334.015 12.901l-.288-.198a14 14 0 0 0-.688-.458c-.23-.142-.468-.27-.71-.4q-.164-.088-.332-.18.207-.683.341-1.384a1.4 1.4 0 0 0-.392-.023q-.133-.003-.268-.002l-.124.001zm-.296-10.695q.014.046.02.093a8.76 8.76 0 0 1-5.901-.006l.059-.145q.058-.146.116-.282c.25-.607.586-1.175.999-1.685.256-.323.573-.592.933-.794a1.72 1.72 0 0 1 1.79.05c.388.241.725.557.992.928.414.564.749 1.184.992 1.841M9.163 15.92l-.012-.044a8.78 8.78 0 0 1 5.89-.002 1 1 0 0 1-.015.087 7.2 7.2 0 0 1-1.158 2.05q-.294.354-.669.623c-.727.512-1.508.505-2.227-.02a4 4 0 0 1-.887-.92 7.7 7.7 0 0 1-.905-1.72q-.008-.023-.016-.054m8.287 1.27a8.4 8.4 0 0 1-3.104 1.51q.475-.554.824-1.193c.155-.294.3-.594.447-.9l.2-.413a8.5 8.5 0 0 1 1.633.996m-8.415.327q.35.64.828 1.187a8.5 8.5 0 0 1-3.113-1.514 8.5 8.5 0 0 1 1.634-.996l.2.415c.147.308.293.611.451.908m8.39-14.323c-.147.21-1.212.87-1.637 1.013-.359-.913-.802-1.766-1.45-2.507 1.122.281 2.172.79 3.088 1.494M6.76 3.206a8.4 8.4 0 0 1 3.089-1.5A8.6 8.6 0 0 0 8.416 4.2c-.31-.078-1.329-.688-1.657-.994M19.257 11.5a2.9 2.9 0 0 0 .29-1.29l-.014-.167q-.011-.183-.035-.364a2.27 2.27 0 0 0-1.392-1.84 3.1 3.1 0 0 0-1.015-.246 3.8 3.8 0 0 0-1.802.221c-.67.25-1.18.802-1.376 1.489-.13.45-.16.923-.087 1.386.148 1.017.728 1.67 1.696 1.98.447.135.916.186 1.383.149.4-.014.795-.097 1.167-.244a2.26 2.26 0 0 0 1.185-1.074m-1.625-1.504.013.213q0 .535-.113 1.06-.041.179-.12.344a.83.83 0 0 1-1.511-.032 2.2 2.2 0 0 1-.169-.692 6 6 0 0 1 .028-1.56c.027-.21.091-.413.19-.6a.78.78 0 0 1 .726-.417.76.76 0 0 1 .707.419c.12.238.193.498.212.765.019.166.028.333.037.5m-5.387-.705-.045-.126c-.183-.49-.55-.74-1.056-.793a1.4 1.4 0 0 0-.58.03.7.7 0 0 0-.322.2c-.18.2-.16.424.068.564q.202.118.428.178c.164.045.33.083.496.122q.23.052.459.112c.368.089.719.235 1.041.434.346.216.568.584.596.99.059.413-.057.832-.32 1.156-.2.234-.459.41-.75.507-.391.132-.804.184-1.215.155a3.7 3.7 0 0 1-1.394-.36l-.044-.017-.029-.01-.185.262h-.656v-1.812q.17-.027.342-.014.113-.003.232-.001h.115l.02.051.046.12c.228.543.61.907 1.202 1.02.196.046.4.041.595-.012a.9.9 0 0 0 .293-.15.378.378 0 0 0-.001-.615 1.7 1.7 0 0 0-.469-.244c-.188-.066-.38-.121-.572-.177q-.21-.059-.415-.124a7 7 0 0 1-.674-.242c-.417-.186-.723-.488-.816-.947-.148-.733.16-1.371.832-1.726.288-.147.605-.229.928-.242a3.6 3.6 0 0 1 1.784.324q.019.008.045.017l.033.013.136-.227h.69v1.691l-.152.002-.237.002h-.41zM8.15 12.667v-.682H7.89c-.305-.005-.376-.07-.377-.374q-.003-1.418 0-2.835c0-.294.07-.358.368-.368h.056l.078-.001.126-.012a2.1 2.1 0 0 0-.01-.667H5.236v.678h.245c.326.006.404.08.404.407q.003 1.384 0 2.768a2 2 0 0 1-.025.215.2.2 0 0 1-.177.174q-.09.015-.182.015h-.264v.682z" clip-rule="evenodd"/></svg>