<svg xmlns="http://www.w3.org/2000/svg" width="24" height="24" fill="none"><g clip-path="url(#a)"><path fill="#61646B" fill-rule="evenodd" d="M24 12c0 6.627-5.373 12-12 12S0 18.627 0 12 5.373 0 12 0s12 5.373 12 12m-1 0c0 6.075-4.925 11-11 11S1 18.075 1 12 5.925 1 12 1s11 4.925 11 11" clip-rule="evenodd"/><path fill="#C9CBCF" d="M4.61 11.273 5.925 7.62h.926l1.316 3.652h-.812l-.268-.777H5.684l-.267.777zm1.295-1.42h.967L6.39 8.444zm2.568-2.232h.781v3.652h-.781zm4.474 2.335c-.15.885-.715 1.4-1.59 1.4-1.08 0-1.758-.819-1.758-1.904s.679-1.913 1.759-1.913c.838 0 1.414.494 1.573 1.337l-.812.036c-.093-.457-.376-.715-.777-.715-.643 0-.94.54-.94 1.255 0 .71.303 1.245.94 1.245.427 0 .705-.278.787-.772zm1.783-2.335c.874 0 1.404.453 1.404 1.194s-.53 1.198-1.404 1.198h-.679v1.26h-.782V7.62zm-.679 1.734h.633c.411 0 .648-.186.648-.54s-.237-.535-.648-.535h-.633zm1.784 1.918 1.317-3.652h.925l1.317 3.652h-.813l-.267-.777H16.91l-.268.777zm1.296-1.42h.967l-.483-1.409zM6.08 15.433c.067.391.345.648.802.648.35 0 .587-.138.581-.406-.005-.267-.231-.422-.802-.56-.792-.19-1.301-.51-1.301-1.096 0-.663.555-1.08 1.389-1.08.812 0 1.368.499 1.455 1.234l-.782.041c-.04-.385-.308-.627-.694-.627-.34 0-.581.175-.566.442.01.309.37.412.761.51.818.18 1.338.53 1.338 1.11 0 .695-.612 1.086-1.4 1.086-.889 0-1.516-.494-1.568-1.266zm4.22 1.322c-1.11 0-1.774-.73-1.774-1.903 0-1.183.664-1.913 1.775-1.913s1.78.73 1.78 1.913c0 1.173-.67 1.903-1.78 1.903m-.966-1.903c0 .782.36 1.245.967 1.245.617 0 .972-.463.972-1.245 0-.787-.355-1.255-.972-1.255-.607 0-.967.468-.967 1.255m6.308.504c-.15.885-.715 1.4-1.59 1.4-1.08 0-1.758-.819-1.758-1.904s.678-1.913 1.758-1.913c.839 0 1.415.494 1.574 1.337l-.812.036c-.093-.457-.376-.715-.777-.715-.643 0-.941.54-.941 1.255 0 .71.303 1.245.94 1.245.428 0 .706-.278.788-.772zm.296-1.172c.061-.72.606-1.245 1.414-1.245.766 0 1.316.468 1.316 1.111 0 .56-.447.884-.946 1.172-.2.114-.838.494-.859.793h1.816v.658h-2.767c0-1.07.601-1.558 1.347-1.98.37-.226.607-.417.607-.653 0-.257-.21-.443-.514-.443-.33 0-.545.227-.612.633z"/></g><defs><clipPath id="a"><path fill="#fff" d="M0 0h24v24H0z"/></clipPath></defs></svg>