<svg xmlns="http://www.w3.org/2000/svg" width="26" height="26" fill="none"><path fill="#C9CBCF" d="M21.958 16.648c.06.122.09.272.13.402.08.264.16.53.257.789.41.004.822.014 1.233-.01-.291.29-.699.467-.993.752.075.215.133.436.202.653.058.18.137.363.168.55-.327-.25-.657-.5-.996-.732-.146.048-.609.432-.767.552-.065.05-.134.115-.21.143-.04-.138.32-.898.318-1.123-.002-.129-.835-.65-.98-.792.416-.001.83.018 1.247.01q.201-.596.39-1.194M12.96 1c.084.102.334.959.405 1.157.412.014.827.005 1.24.005-.109.098-.24.18-.358.267q-.322.238-.648.471c.096.405.305.794.38 1.203q-.484-.36-.972-.713l-.01-.002c-.102-.008-.873.6-1.018.712.018-.14.073-.277.117-.41.085-.253.178-.506.238-.766-.226-.273-.782-.51-.982-.77.407.01.823.033 1.23.005.171-.347.254-.788.377-1.159M7.826 20.5c.025.024.332 1.03.371 1.155.405.045.826-.019 1.234.018-.09.082-.199.147-.297.22q-.339.253-.687.495c.108.422.272.824.388 1.242-.326-.269-.682-.496-1.005-.769-.074.033-.146.098-.213.146-.247.176-.538.421-.792.566.032-.244.275-.877.37-1.137-.113-.12-.261-.216-.392-.314-.206-.153-.411-.306-.623-.45q.62-.022 1.24-.009c.125-.321.245-.893.406-1.163M4.017 16.648c.082.096.327.999.384 1.19.418.026.85.013 1.268-.007-.216.161-.436.317-.653.477-.122.09-.259.178-.364.288q.193.596.401 1.186c-.355-.218-.665-.514-1.022-.725-.154.06-.854.595-1.045.731.155-.39.285-.785.408-1.187-.118-.127-.283-.228-.422-.33a17 17 0 0 1-.605-.458c.373.059.897.056 1.273.019.106-.397.257-.789.377-1.184M18.176 20.469c.06.128.092.28.133.417q.12.384.242.767c.412.02.832 0 1.244.002-.293.288-.7.462-.992.752.047.173.367 1.074.358 1.155v-.007c-.011.002-.022.007-.033.005-.065-.014-.73-.538-.855-.622-.053-.036-.087-.062-.153-.049-.165.132-.337.255-.506.382-.156.117-.31.245-.48.343.177-.378.268-.8.422-1.188-.312-.284-.69-.488-1.01-.762.413-.028.835-.006 1.249-.01.043-.177.11-.35.165-.525.069-.219.128-.449.216-.66M12.962 21.883c.08.084.338.983.395 1.155l1.245.002c-.291.28-.697.486-1 .764.13.394.277.792.381 1.194a24 24 0 0 1-.988-.732.1.1 0 0 0-.069.016c-.082.046-.16.118-.235.174-.24.178-.48.372-.73.535.098-.4.3-.78.38-1.186-.2-.18-.433-.335-.65-.493-.116-.083-.244-.161-.34-.268.408-.017.819.016 1.227-.002.17-.369.25-.777.384-1.16M4.036 6.195c.057.107.08.257.116.375q.124.403.264.8c.424-.003.852.02 1.275-.01-.298.268-.768.512-1.041.78.143.388.251.788.4 1.175-.244-.108-.742-.542-1.006-.712-.16.036-.826.597-1.048.72.18-.371.273-.783.412-1.17-.306-.295-.695-.492-1.002-.787.412.017.827.007 1.239.003.082-.236.167-.472.242-.71.05-.154.088-.314.15-.464M18.109 2.367c.096.083.343.981.403 1.173q.634.03 1.269-.005c-.301.275-.682.518-1.013.759.1.368.313.855.37 1.209-.323-.233-.64-.477-.959-.715l-.05-.007c-.15.058-.822.583-1.008.725.096-.261.175-.527.256-.794.04-.13.093-.261.112-.396-.045-.101-.853-.664-1.005-.767.424-.026.852.016 1.277-.009.119-.394.254-.771.348-1.173M2.662 11.453c.025.035.309.992.372 1.154.421.015.848.01 1.27 0q-.524.367-1.029.76.177.603.389 1.193c-.361-.207-.664-.512-1.013-.736-.127.067-.243.174-.36.259-.222.163-.448.32-.666.49.081-.237.364-.993.368-1.185-.04-.114-.837-.65-.993-.778.419-.005.839.011 1.257-.003.08-.231.31-1.02.405-1.154M7.803 2.398a.1.1 0 0 1 .033.036c.046.09.068.228.1.326.084.261.172.524.27.78.418.026.858.023 1.277-.008-.202.137-.394.291-.59.436-.15.111-.304.214-.45.328.085.414.295.803.373 1.218q-.475-.374-.97-.72l-.05-.008c-.146.058-.835.602-.994.728.052-.226.366-1.027.349-1.172a.2.2 0 0 0-.06-.114C7 4.142 6.879 4.071 6.777 4a10 10 0 0 1-.605-.453c.416-.001.833.013 1.249.006.148-.375.255-.772.382-1.154M21.962 6.21c.076.108.107.302.145.43.073.247.14.502.252.734q.609.012 1.218-.014c-.177.21-.736.569-.986.755.107.41.275.804.385 1.214-.116-.065-.224-.162-.331-.24l-.685-.506c-.076.034-.15.107-.218.158-.221.164-.443.346-.67.5-.035.022-.057.04-.099.032.094-.384.243-.752.364-1.128-.278-.264-.72-.536-1.032-.783q.63.008 1.261.005c.122-.256.198-.561.282-.833.034-.107.06-.225.114-.323M23.364 11.445c.014.02.309 1.022.357 1.171q.638.01 1.276-.004l-1.024.744c.087.411.26.815.386 1.216-.258-.165-.757-.507-.962-.72-.018-.019-.02-.016-.044-.022-.346.247-.706.483-1.033.754.051-.149.385-1.111.366-1.191-.026-.11-.86-.666-.998-.777.418-.008.837.005 1.255-.001.117-.278.284-.979.421-1.17M9.1 12.061c.305-.03.645.048.896.228.239.171.402.453.449.743a7 7 0 0 0-.613-.004c-.018-.057-.036-.117-.067-.17a.57.57 0 0 0-.363-.257.73.73 0 0 0-.563.11c-.189.132-.276.34-.312.56-.047.29-.03.655.15.899.117.16.306.27.501.293a.65.65 0 0 0 .493-.128c.082-.068.226-.246.223-.358a.1.1 0 0 0-.04-.08c-.093-.071-.423-.027-.55-.026q-.003-.18-.003-.359a.1.1 0 0 1 .008-.061c.135-.051.98-.026 1.162-.008.009.381-.001.77-.233 1.088-.19.26-.471.401-.784.447-.351.052-.728-.014-1.016-.232-.301-.229-.458-.541-.51-.914-.06-.438-.002-.92.271-1.28.224-.295.543-.443.9-.49M13.76 12.1c.21-.01.422-.003.632-.004.398 0 .816-.038 1.154.215a.87.87 0 0 1 .336.593c.034.258-.01.533-.171.742-.176.228-.428.338-.706.371a10 10 0 0 1-.649.015q-.003.457.002.916-.3.006-.6 0z"/><path fill="#010101" d="M14.427 12.576c.25-.007.523-.037.716.156a.47.47 0 0 1 .133.25.5.5 0 0 1 .008.095c0 .162-.072.267-.183.373-.216.136-.5.098-.743.093-.003-.173-.04-.841.02-.953z"/><path fill="#C9CBCF" d="M16.29 12.1c.358-.013 1.15-.038 1.467.044a.85.85 0 0 1 .536.39c.128.221.16.501.095.748-.07.264-.233.43-.463.563.043.114.115.226.172.333q.208.389.428.77l-.54.005-.138-.007c-.161-.328-.322-.705-.54-.999-.139-.006-.277-.001-.415.001-.04.326-.015.678-.014 1.007l-.589-.006z"/><path fill="#010101" d="M16.908 12.573c.212-.017.49-.026.685.075.1.053.18.14.209.25.044.17-.04.315-.124.454-.195.153-.551.104-.784.1-.014-.156-.04-.76.014-.879"/><path fill="#C9CBCF" d="M10.934 12.1c.199-.007.399-.004.598-.005.46-.003.954-.016 1.328.304.277.237.421.61.448.969.034.454-.074.861-.37 1.21q-.04.039-.083.073c-.381.314-.822.3-1.29.3-.21 0-.423.004-.633-.017-.021-.407-.003-.825-.003-1.233 0-.533-.013-1.069.005-1.6"/><path fill="#010101" d="m11.653 12.605.057-.002c.27-.006.575-.002.779.205.18.183.244.47.243.72-.001.29-.079.543-.284.75-.264.202-.604.17-.916.154-.012-.352-.002-.707-.002-1.06 0-.24-.018-.495.007-.733.034-.033.07-.028.116-.034"/></svg>