<svg xmlns="http://www.w3.org/2000/svg" width="100" height="24" fill="none"><mask id="a" width="100" height="20" x="0" y="2" maskUnits="userSpaceOnUse" style="mask-type:luminance"><path fill="#fff" d="M100 2H0v20h100z"/></mask><g mask="url(#a)"><path fill="url(#b)" d="M42.585 21.58H38.94l-7.966-8.391H29.49v8.392h-2.7V2h9.046c3.807 0 6.075 2.098 6.075 5.594s-2.268 5.595-6.075 5.595h-1.35zM39.21 7.595c0-1.986-1.08-3.216-3.375-3.216h-6.346v6.433h6.346c2.295 0 3.375-1.23 3.375-3.217"/><path fill="url(#c)" d="M49.497 22.002c-4.32 0-7.02-3.329-7.02-7.692 0-4.364 2.7-7.693 6.885-7.693 3.375 0 5.4 1.958 6.292 4.867.323 1.091.459 2.294.459 3.525v.28H45.069c.081 2.35 1.755 4.615 4.428 4.615 2.295 0 3.348-1.37 3.564-2.378h2.781c-.647 2.378-2.808 4.476-6.345 4.476m-4.428-8.811h8.451c-.135-2.518-1.43-4.476-4.158-4.476-2.727 0-4.212 2.098-4.293 4.476"/><path fill="url(#d)" d="M56 9.594V7.357h3.375V4h2.592v3.357h3.646v2.237h-3.646v8.812c0 .979.27 1.314 1.215 1.314h2.43v2.182h-2.97c-2.457 0-3.267-1.259-3.267-3.496V9.594z"/><path fill="url(#e)" d="M73.312 6.617c4.32 0 7.155 3.329 7.155 7.693s-2.835 7.692-7.155 7.692-7.156-3.329-7.156-7.692c0-4.364 2.835-7.693 7.156-7.693m0 2.238c-2.943 0-4.563 2.517-4.563 5.454 0 2.938 1.62 5.455 4.563 5.455s4.563-2.517 4.563-5.454c0-2.938-1.62-5.455-4.563-5.455"/><path fill="url(#f)" d="M88.772 6.617c4.32 0 7.156 3.329 7.156 7.693s-2.835 7.692-7.156 7.692-7.155-3.329-7.155-7.692c0-4.364 2.835-7.693 7.155-7.693m0 2.238c-2.943 0-4.563 2.517-4.563 5.454 0 2.938 1.62 5.455 4.563 5.455 2.944 0 4.564-2.517 4.564-5.454 0-2.938-1.62-5.455-4.564-5.455"/><path fill="url(#g)" d="M100.022 2v19.58H97.43V2z"/><path fill="url(#h)" d="M11.874 2.918a.904.904 0 0 0-.89-.918H.89C.399 2 0 2.41 0 2.918V7.2c0 .507.399.918.89.918h10.093c.492 0 .89.41.89.917v1.224a.904.904 0 0 1-.89.918h-6.53c-.492 0-.89.41-.89.918v4.283c0 .506.398.917.89.917h6.53c.492 0 .89.411.89.918v2.448c0 .507.4.917.891.917h4.156c.492 0 .89-.41.89-.917v-4.283a.904.904 0 0 0-.89-.918h-4.156a.904.904 0 0 1-.89-.918v-1.224c0-.507.399-.918.89-.918h4.156c.492 0 .89-.41.89-.917V7.2a.904.904 0 0 0-.89-.918h-4.156a.904.904 0 0 1-.89-.918z"/></g><defs><linearGradient id="b" x1="34.687" x2="34.687" y1="2" y2="21.581" gradientUnits="userSpaceOnUse"><stop stop-color="#C1C3C7"/><stop offset="1" stop-color="#898D94"/></linearGradient><linearGradient id="c" x1="49.295" x2="49.295" y1="6.617" y2="22.002" gradientUnits="userSpaceOnUse"><stop stop-color="#C1C3C7"/><stop offset="1" stop-color="#898D94"/></linearGradient><linearGradient id="d" x1="60.806" x2="60.806" y1="4" y2="21.902" gradientUnits="userSpaceOnUse"><stop stop-color="#C1C3C7"/><stop offset="1" stop-color="#898D94"/></linearGradient><linearGradient id="e" x1="73.312" x2="73.312" y1="6.617" y2="22.002" gradientUnits="userSpaceOnUse"><stop stop-color="#C1C3C7"/><stop offset="1" stop-color="#898D94"/></linearGradient><linearGradient id="f" x1="88.772" x2="88.772" y1="6.617" y2="22.002" gradientUnits="userSpaceOnUse"><stop stop-color="#C1C3C7"/><stop offset="1" stop-color="#898D94"/></linearGradient><linearGradient id="g" x1="98.726" x2="98.726" y1="2" y2="21.581" gradientUnits="userSpaceOnUse"><stop stop-color="#C1C3C7"/><stop offset="1" stop-color="#898D94"/></linearGradient><linearGradient id="h" x1="8.905" x2="8.905" y1="2" y2="21.579" gradientUnits="userSpaceOnUse"><stop stop-color="#C1C3C7"/><stop offset="1" stop-color="#898D94"/></linearGradient></defs></svg>