<svg xmlns="http://www.w3.org/2000/svg" width="118" height="24" fill="none"><path fill="url(#a)" d="M2.541 7.849v10.106H0V3.862h2.468L6.77 9.426l4.41-5.545h2.377v14.074h-2.541V7.795L6.86 12.922h-.295zm20.607 10.106h-2.686V7.39h2.269l.235 2.205c.654-1.507 1.997-2.5 3.994-2.5 2.83 0 4.391 1.82 4.391 4.65v6.209h-2.686v-5.548c0-1.888-.654-3.05-2.577-3.05-2.015 0-2.944 1.268-2.944 3.416zm18.934-2.13c-.652 1.47-2.014 2.384-4.084 2.384-2.94 0-5.044-1.764-5.044-5.474v-.147c0-3.528 2.05-5.476 5.135-5.476 1.834 0 3.158.753 3.883 2.058V3.88h2.596v14.074h-2.253l-.233-2.131m-.02-3.101v-.11c0-2.04-1.216-3.308-3.195-3.308-2.141 0-3.352 1.23-3.352 3.307v.13c0 2.167 1.283 3.214 3.28 3.214 2.087-.004 3.267-1.198 3.267-3.233m8.446 5.23L45.789 7.392h2.846l3.14 7.589 3.25-7.589h2.884l-4.952 10.564zm20.388.002V3.88h2.669v14.074zm4.769 0V3.88h2.668v14.074zm10.187.312c-4.046 0-5.843-2.131-5.843-5.365v-.165c0-3.27 2.178-5.64 5.97-5.64 3.884 0 5.807 2.407 5.807 5.438v1.12H82.59c.254 1.599 1.361 2.445 3.411 2.445 1.507 0 2.342-.441 2.76-1.268h2.903c-.835 2.315-2.812 3.435-5.812 3.435m-3.23-6.633h6.537c-.235-1.598-1.234-2.443-3.121-2.443-1.942 0-3.085.9-3.412 2.443zm9.93 10.582v-2.332h1.325c1.561 0 2.032-.404 2.722-1.764l.254-.551L91.99 7.39h2.867l3.213 7.074.109.422.126-.404 3.177-7.092h2.83l-5.28 11.194c-1.525 3.18-2.196 3.637-5.228 3.637zM17.05 7.557a4.7 4.7 0 0 1-1.391-.173v10.57h2.722V7.377c-.432.13-.88.191-1.331.182m.015-1.129c.96 0 1.48-.356 1.48-1.421 0-1.02-.504-1.437-1.48-1.437h.004c-.981 0-1.48.418-1.48 1.437 0 1.065.519 1.421 1.48 1.421zm87.127-2.582 1.418.17 2.019.39c.63.156 1.294.325 1.865.646.995.559 1.197 1.726 1.197 2.79v2.164c-4.538-2.349-6.499-6.16-6.499-6.16m13.809 0-1.418.17-2.019.389c-.63.157-1.294.325-1.865.646-.996.559-1.197 1.727-1.197 2.791v2.163C116.039 7.656 118 3.846 118 3.846m-51.469 11.97c-.761 1.49-2.377 2.57-4.863 2.57-2.504 0-3.828-1.065-3.828-2.902 0-1.192.508-2.094 1.472-2.627.962-.55 1.81-.687 4.328-.994l2.77-.26v-.95c0-.809-.635-1.416-2.505-1.416-2.087 0-2.904.696-3.013 1.987h-2.744c.236-2.555 2.195-4.006 5.571-4.006 3.648 0 5.245 1.23 5.245 3.95v6.908h-2.16l-.272-2.262zm-.132-2.532-2.317.234c-1.561.166-2.25.299-2.741.589-.454.275-.715.596-.715 1.072v.018c0 .773.778 1.192 1.895 1.188 2.323-.019 3.878-1.557 3.878-3.101"/><defs><linearGradient id="a" x1="59" x2="59" y1="3.57" y2="22.222" gradientUnits="userSpaceOnUse"><stop stop-color="#C1C3C7"/><stop offset="1" stop-color="#898D94"/></linearGradient></defs></svg>
