<svg xmlns="http://www.w3.org/2000/svg" width="98" height="25" fill="none"><path fill="url(#a)" fill-rule="evenodd" d="M35.209 2.565a1.636 1.636 0 1 1-3.271 0 1.636 1.636 0 0 1 3.27 0M7.75 4.532a3.516 3.516 0 1 1-7.032 0 3.516 3.516 0 0 1 7.032 0M22.223 2.25H8.103a4.486 4.486 0 0 1-.009 4.582l.025-.002q.051-.003.102-.004h11.492a1.88 1.88 0 0 1 1.88 1.88v8.374a1.88 1.88 0 0 1-1.88 1.88H8.221a1.88 1.88 0 0 1-1.88-1.88V8.706q.001-.107.013-.213c-.63.337-1.35.529-2.114.529a4.47 4.47 0 0 1-2.474-.744v10.396A4.895 4.895 0 0 0 6.66 23.57H21.43a4.606 4.606 0 0 0 4.605-4.606V6.062a3.81 3.81 0 0 0-3.812-3.812m12.201 2.844h-2.143v11.001h2.92V5.87a.777.777 0 0 0-.777-.776m11.404.117 3.829 10.892h2.837l3.794-10.892H54.33a1.32 1.32 0 0 0-1.265.94l-2.007 6.662-2.256-7.602zm15.378-.281c3.76 0 4.853 3.119 4.853 4.985v1.412h-7.146c0 1.654.8 2.667 2.294 2.667s2.079-1.28 2.079-1.28h2.586s-.56 3.494-4.772 3.494c-4.852 0-4.96-4.48-4.96-5.093V9.782c0-2.692 2.213-4.852 5.066-4.852m-2.293 4.666h4.24s.267-2.267-2.106-2.267c-2.374 0-2.134 2.267-2.134 2.267M41.052 4.93c-4.266 0-4.693 2.986-4.693 4.666v6.5h2.8l-.053-7.034c0-1.253 1.027-1.94 1.987-1.94 1.253 0 1.902.9 1.902 1.727v5.696c0 .856.694 1.55 1.55 1.55h1.281V8.584c0-.374-.508-3.653-4.774-3.653m25.721 4.666c0-1.68.427-4.666 4.693-4.666s4.774 3.28 4.774 3.653v7.513h-1.28a1.55 1.55 0 0 1-1.55-1.551V8.849c0-.826-.65-1.727-1.903-1.727-.96 0-1.987.687-1.987 1.94l.053 7.034h-2.8zm17.182-1.162h2.81s-.712-3.52-4.73-3.52c-2.879 0-4.701 2.387-4.834 4.16-.107 1.42-.284 3.874 1.209 5.616 1.387 1.618 3.112 1.58 3.72 1.566l.12-.002c.96 0 3.732-.32 4.656-3.52h-1.71c-.477 0-.867 0-1.173.327l-.026.029c-.312.335-.763.82-1.784.82-1.05 0-2.435-.603-2.435-3.262s1.251-3.352 2.212-3.352c.96 0 1.474.179 1.966 1.136zm3.412 2.18c0-1.316.168-5.716 4.964-5.716 4.795 0 4.982 4.604 4.982 5.715 0 1.032-.26 5.59-4.982 5.59-4.724 0-4.964-4.274-4.964-5.59m2.692.043c0 2.822 1.146 3.267 2.29 3.267 1.19 0 2.328-.873 2.328-3.417s-1.223-3.18-2.329-3.18c-1.167 0-2.288.51-2.288 3.33M33.814 23.465q-.735 0-1.145-.453t-.41-1.267c0-.543.132-.967.396-1.29q.396-.486 1.07-.485.596 0 .939.415.344.415.343 1.128v.248H32.58q.007.694.324 1.06.318.366.91.365.289 0 .507-.04a3 3 0 0 0 .553-.173v.279q-.285.124-.527.168-.241.046-.533.046zm-.09-3.223q-.487 0-.78.32-.296.32-.344.925h2.082q0-.585-.254-.916-.255-.33-.703-.33m2.819 2.768q.41.456 1.131.456.524 0 .846-.159v-.285q-.394.164-.852.164-.574 0-.893-.386c-.213-.257-.319-.589-.319-1.067q0-.719.319-1.102.32-.382.939-.382.322 0 .76.146l.083-.273a2.3 2.3 0 0 0-.836-.152q-.738 0-1.162.466c-.284.312-.425.76-.425 1.304q0 .814.409 1.27m5.854-1.296q0 .825-.4 1.288t-1.103.463a1.43 1.43 0 0 1-.781-.213 1.37 1.37 0 0 1-.518-.614 2.2 2.2 0 0 1-.18-.923q0-.825.4-1.285t1.097-.46 1.09.466.394 1.278m-2.66 0q0 .695.306 1.083.305.39.863.389.558 0 .863-.39.305-.388.305-1.082 0-.696-.308-1.082-.309-.384-.866-.384-.559 0-.86.382-.303.384-.303 1.083zm8.16-.521v2.21h.304v-2.204q0-.642-.276-.935t-.827-.294q-.354 0-.63.154a1.15 1.15 0 0 0-.442.444h-.013q-.226-.598-1.023-.598-.309 0-.567.137a.97.97 0 0 0-.396.39h-.019l-.065-.463h-.255v3.369h.307v-1.86q0-.679.242-.987.243-.308.772-.308.78 0 .78.852v2.303h.313v-1.974q0-.61.248-.896.248-.285.766-.285.397 0 .59.226.191.226.192.719m5.954 2.21v-2.21q0-.493-.193-.719-.192-.226-.589-.226-.517 0-.765.285t-.249.896v1.974h-.312v-2.303q0-.852-.781-.852-.53 0-.772.308-.241.309-.242.988v1.859h-.306v-3.369h.254l.065.462h.019a.97.97 0 0 1 .397-.389q.256-.137.567-.137.795 0 1.022.598h.013q.165-.288.441-.444.278-.154.63-.154.553 0 .828.294.276.294.276.935v2.204zm1.967-.39q.41.451 1.145.452.292 0 .534-.044.24-.044.526-.17v-.278a3 3 0 0 1-.553.173 3 3 0 0 1-.507.04q-.59 0-.91-.365-.317-.366-.323-1.06h2.426v-.248q0-.713-.344-1.128t-.939-.415q-.672 0-1.07.485c-.263.323-.396.747-.396 1.29q0 .814.41 1.267m.274-2.45q.294-.321.78-.321l.001-.001q.45 0 .703.33.255.33.255.916h-2.083q.05-.603.344-.925m4.658-.593q.213 0 .458.043l-.06.294a1.8 1.8 0 0 0-.436-.053.85.85 0 0 0-.707.366q-.276.366-.276.924v1.859h-.306v-3.369h.26l.031.608h.022q.21-.372.444-.522t.57-.15m1.613 3.04q.41.456 1.131.456.525 0 .847-.159v-.285q-.394.164-.853.164-.573 0-.893-.386c-.212-.257-.319-.589-.319-1.067q0-.719.32-1.102.318-.382.938-.382.323 0 .76.146l.084-.273a2.3 2.3 0 0 0-.837-.152q-.739 0-1.162.466c-.284.312-.425.76-.425 1.304q0 .814.41 1.27m4.451.455q-.735 0-1.145-.453t-.41-1.267c0-.543.132-.967.396-1.29q.396-.486 1.07-.485.596 0 .939.415.344.415.344 1.128v.248h-2.426q.006.694.324 1.06t.91.365q.288 0 .507-.04a3 3 0 0 0 .553-.173v.279q-.285.124-.527.168-.241.046-.533.046zm-.09-3.223q-.487 0-.78.32-.295.32-.345.925h2.082q0-.585-.254-.916-.255-.33-.703-.33m4.785 3.166h.306v-4.821h-.306zm4.583-1.694q0 .825-.4 1.288t-1.103.463a1.43 1.43 0 0 1-.78-.213 1.37 1.37 0 0 1-.518-.614 2.2 2.2 0 0 1-.18-.923q0-.825.4-1.285t1.096-.46 1.09.466q.394.467.394 1.278zm-2.66 0q0 .695.306 1.083.305.39.863.389.558 0 .863-.39.305-.388.306-1.082 0-.696-.309-1.082-.308-.384-.866-.384t-.86.382q-.303.384-.302 1.083zm6.574-1.465v-.214h-1.078a1.6 1.6 0 0 0-.514-.065q-.546 0-.867.305-.32.306-.32.81 0 .336.164.594.165.259.459.38-.431.257-.431.595 0 .154.091.274.092.12.244.184-.37.084-.584.313a.8.8 0 0 0-.216.576q0 .436.349.681.348.246.984.245.799 0 1.23-.29a.93.93 0 0 0 .433-.823q0-.433-.291-.655-.292-.22-.84-.221h-.589q-.287 0-.41-.075-.123-.074-.122-.235 0-.147.096-.276a.8.8 0 0 1 .279-.226q.094.018.322.019.544 0 .87-.302.323-.303.323-.789 0-.414-.279-.762zm-1.695 4.418q-1.032.001-1.032-.694l.001.001q0-.728.926-.728h.552q.464 0 .672.136.208.135.208.44 0 .846-1.327.845m-.537-2.975q-.238-.216-.238-.606v-.001q0-.413.231-.643c.155-.153.358-.23.634-.23q.415 0 .646.215.231.216.231.647 0 .405-.225.62-.226.213-.646.213-.396 0-.633-.215m3.29-2.589q0-.297.195-.297.095 0 .15.077a.4.4 0 0 1 .054.22.4.4 0 0 1-.054.22.17.17 0 0 1-.15.08q-.196 0-.195-.3m.35 4.304h-.307v-3.368h.306zm3.213-.185q.345-.244.345-.696h.001a.73.73 0 0 0-.104-.393.96.96 0 0 0-.311-.3 3.6 3.6 0 0 0-.664-.296q-.546-.195-.733-.353a.52.52 0 0 1-.187-.421q0-.24.242-.378c.16-.091.37-.136.653-.136q.425 0 .92.205l.116-.28a2.6 2.6 0 0 0-1.035-.204q-.57 0-.888.22a.69.69 0 0 0-.318.598.75.75 0 0 0 .103.404q.104.166.308.298.204.13.71.314.471.167.677.341a.54.54 0 0 1 .206.428q0 .274-.259.441-.258.165-.758.166-.564 0-1.072-.254v.331q.396.208 1.072.208.633 0 .976-.243m2.64-.03q.293 0 .508-.049v.248a1.6 1.6 0 0 1-.514.074q-.445 0-.658-.238-.212-.24-.212-.75v-2.175h-.5v-.18l.5-.14.154-.762h.158v.815h.989v.267h-.989v2.132q0 .388.136.573.137.186.428.186m1.788-4.386q-.195 0-.195.297 0 .3.196.3a.17.17 0 0 0 .15-.08.4.4 0 0 0 .053-.22.4.4 0 0 0-.053-.22.17.17 0 0 0-.15-.077m-.151 4.601h.306v-3.368h-.306zm3.13.059q-.723 0-1.132-.456-.41-.456-.409-1.27c0-.544.141-.992.425-1.304q.424-.465 1.162-.466.437 0 .837.152l-.084.273a2.5 2.5 0 0 0-.76-.146q-.62 0-.939.382-.318.384-.318 1.102c0 .478.106.81.318 1.067q.319.386.893.386.459 0 .853-.164v.285q-.322.158-.847.159m3.914-.244q.345-.244.344-.696h.002a.73.73 0 0 0-.104-.393.96.96 0 0 0-.312-.3 3.6 3.6 0 0 0-.663-.296q-.547-.195-.733-.353a.52.52 0 0 1-.188-.421q0-.24.242-.378c.161-.091.371-.136.654-.136q.424 0 .92.205l.115-.28a2.6 2.6 0 0 0-1.035-.204q-.57 0-.888.22a.69.69 0 0 0-.318.598.75.75 0 0 0 .104.404q.103.166.308.298.204.13.709.314.471.167.677.341a.54.54 0 0 1 .206.428q0 .274-.259.441-.258.165-.757.166-.564 0-1.073-.254v.331q.396.208 1.073.208.631 0 .976-.243" clip-rule="evenodd"/><defs><linearGradient id="a" x1="49.016" x2="49.016" y1=".93" y2="24.926" gradientUnits="userSpaceOnUse"><stop stop-color="#C1C3C7"/><stop offset="1" stop-color="#898D94"/></linearGradient></defs></svg>