<svg xmlns="http://www.w3.org/2000/svg" width="125" height="24" fill="none"><path fill="url(#a)" d="M32.94 8.22q-1.647-.945-3.72-.946-2.075.001-3.734.947a7.1 7.1 0 0 0-2.631 2.587q-.971 1.645-.972 3.766c0 1.413.33 2.648.984 3.753a7.2 7.2 0 0 0 2.643 2.616q1.66.957 3.705.958c1.363 0 2.574-.313 3.68-.946a7.14 7.14 0 0 0 2.644-2.6q.983-1.658.984-3.777 0-2.12-.972-3.766a7.1 7.1 0 0 0-2.619-2.587zm-.024 8.726a4.24 4.24 0 0 1-1.517 1.645c-.639.398-1.367.597-2.176.597a4.1 4.1 0 0 1-2.192-.597 4.2 4.2 0 0 1-1.529-1.645q-.556-1.048-.557-2.368.001-1.322.557-2.344a4.3 4.3 0 0 1 1.53-1.629q.97-.61 2.191-.61t2.176.61q.957.61 1.517 1.629.556 1.022.557 2.344-.001 1.321-.557 2.368"/><path fill="url(#b)" d="M42.632 8.016q-.26.153-.484.354c-.293.264-.76.069-.76-.33a.45.45 0 0 0-.452-.45h-1.89a.45.45 0 0 0-.452.45v13.1c0 .252.203.451.451.451h2.021a.45.45 0 0 0 .452-.45v-7.625q0-1.631.894-2.538.896-.908 2.347-.906h.764a.45.45 0 0 0 .452-.451V7.858a.45.45 0 0 0-.452-.45h-.402q-1.452 0-2.489.608"/><path fill="url(#c)" d="M58.219 8.013c0 .426-.484.67-.826.418a5 5 0 0 0-.768-.475c-.875-.447-1.863-.675-2.969-.675q-1.994.001-3.59.959a6.9 6.9 0 0 0-2.514 2.616q-.92 1.658-.92 3.729 0 2.07.92 3.729a7 7 0 0 0 2.513 2.628q1.591.969 3.591.97 1.634.001 2.969-.674.475-.238.87-.556c.346-.277.854-.045.854.398 0 .288.232.52.52.52h1.757c.29 0 .52-.232.52-.52V2.52a.52.52 0 0 0-.52-.52H58.74a.52.52 0 0 0-.52.52zm-.557 8.94a4.24 4.24 0 0 1-1.517 1.645q-.96.597-2.176.597c-.81 0-1.57-.2-2.216-.597a4.1 4.1 0 0 1-1.517-1.645q-.544-1.047-.545-2.368.001-1.322.545-2.344a4.2 4.2 0 0 1 1.529-1.629 4.1 4.1 0 0 1 2.204-.61q1.218 0 2.176.598a4.27 4.27 0 0 1 1.517 1.645q.556 1.047.557 2.344c0 .865-.187 1.67-.557 2.368z"/><path fill="url(#d)" d="M76.984 15.06 74.65 8.079a.72.72 0 0 0-.684-.491h-1.634a.72.72 0 0 0-.684.491l-2.354 6.987c-.22.654-1.151.654-1.367-.004l-2.301-6.979a.72.72 0 0 0-.684-.495H63.36a.718.718 0 0 0-.679.954l4.327 12.568a.72.72 0 0 0 .68.483h1.634a.72.72 0 0 0 .683-.491l2.457-7.397c.22-.658 1.147-.658 1.366 0l2.456 7.397a.72.72 0 0 0 .684.491h1.61a.72.72 0 0 0 .68-.483L83.603 8.54a.72.72 0 0 0-.679-.954h-1.578a.72.72 0 0 0-.683.491l-2.318 6.983c-.22.658-1.147.658-1.366 0z"/><path fill="url(#e)" d="M14.343 15.06 12.01 8.079a.72.72 0 0 0-.683-.491H9.69a.72.72 0 0 0-.683.491l-2.355 6.987c-.22.654-1.15.654-1.366-.004L2.985 8.082a.72.72 0 0 0-.683-.495H.72a.718.718 0 0 0-.68.954L4.369 21.11a.72.72 0 0 0 .679.483h1.635c.309 0 .585-.199.683-.491l2.456-7.397c.22-.658 1.147-.658 1.367 0l2.456 7.397a.72.72 0 0 0 .683.491h1.61a.72.72 0 0 0 .68-.483L20.964 8.54a.72.72 0 0 0-.68-.954h-1.577a.72.72 0 0 0-.683.491l-2.318 6.983c-.22.658-1.147.658-1.367 0z"/><path fill="url(#f)" d="M105.843 8.016q-.26.153-.484.354c-.293.264-.76.069-.76-.33a.45.45 0 0 0-.452-.45h-1.891a.45.45 0 0 0-.451.45v13.1c0 .252.203.451.451.451h2.021a.45.45 0 0 0 .452-.45v-7.625q0-1.631.894-2.538.896-.908 2.347-.906h.764a.45.45 0 0 0 .452-.451V7.858a.45.45 0 0 0-.452-.45h-.402q-1.452 0-2.489.608"/><path fill="url(#g)" d="M123.71 11.466a6.6 6.6 0 0 0-1.309-2.16 6.04 6.04 0 0 0-2.099-1.487q-1.245-.544-2.851-.545-1.946.001-3.513.947a6.8 6.8 0 0 0-2.476 2.575q-.908 1.634-.907 3.753c0 1.414.301 2.628.907 3.741a6.85 6.85 0 0 0 2.513 2.64q1.605.97 3.704.971 1.453.001 2.656-.455c.805-.3 1.493-.71 2.074-1.23q.53-.476.89-1.024a.74.74 0 0 0-.284-1.072l-1.135-.57a.74.74 0 0 0-.915.216 4.4 4.4 0 0 1-1.082.975c-.585.378-1.313.569-2.175.569q-1.218 0-2.192-.597a4.02 4.02 0 0 1-1.769-2.344.744.744 0 0 1 .712-.947h8.935a.734.734 0 0 0 .735-.666v-.008q.024-.362.024-.698c0-.914-.15-1.78-.455-2.588zm-9.703.516q.493-1.085 1.399-1.67c.606-.39 1.285-.58 2.045-.58.761 0 1.461.195 2.046.58a3.42 3.42 0 0 1 1.391 1.845c.147.467-.219.938-.711.938h-5.532a.74.74 0 0 1-.686-1.02q.02-.049.04-.093z"/><path fill="url(#h)" d="M95.883 8.1c0 .426-.484.67-.826.418a5 5 0 0 0-.768-.476c-.875-.446-1.863-.674-2.969-.674q-1.994.001-3.59.959a6.9 6.9 0 0 0-2.514 2.616q-.92 1.656-.92 3.728t.92 3.73a7 7 0 0 0 2.513 2.627q1.592.97 3.591.971 1.634.001 2.969-.674.475-.239.87-.557c.346-.276.854-.044.854.398 0 .289.232.52.52.52h1.757c.29 0 .521-.231.521-.52V8.091a.52.52 0 0 0-.52-.52h-1.888a.52.52 0 0 0-.52.52zm-.557 8.935a4.24 4.24 0 0 1-1.517 1.645c-.639.398-1.367.598-2.176.598s-1.57-.2-2.216-.598a4.1 4.1 0 0 1-1.517-1.645q-.544-1.046-.545-2.368.001-1.32.545-2.343a4.2 4.2 0 0 1 1.53-1.63 4.1 4.1 0 0 1 2.203-.609q1.22 0 2.176.598a4.27 4.27 0 0 1 1.517 1.645q.556 1.046.557 2.343c0 .866-.187 1.67-.557 2.368z"/><defs><linearGradient id="a" x1="29.203" x2="29.203" y1="7.274" y2="21.901" gradientUnits="userSpaceOnUse"><stop stop-color="#C1C3C7"/><stop offset="1" stop-color="#898D94"/></linearGradient><linearGradient id="b" x1="42.284" x2="42.284" y1="7.407" y2="21.591" gradientUnits="userSpaceOnUse"><stop stop-color="#C1C3C7"/><stop offset="1" stop-color="#898D94"/></linearGradient><linearGradient id="c" x1="53.89" x2="53.89" y1="2.001" y2="21.912" gradientUnits="userSpaceOnUse"><stop stop-color="#C1C3C7"/><stop offset="1" stop-color="#898D94"/></linearGradient><linearGradient id="d" x1="73.143" x2="73.143" y1="7.587" y2="21.592" gradientUnits="userSpaceOnUse"><stop stop-color="#C1C3C7"/><stop offset="1" stop-color="#898D94"/></linearGradient><linearGradient id="e" x1="10.502" x2="10.502" y1="7.587" y2="21.592" gradientUnits="userSpaceOnUse"><stop stop-color="#C1C3C7"/><stop offset="1" stop-color="#898D94"/></linearGradient><linearGradient id="f" x1="105.495" x2="105.495" y1="7.407" y2="21.591" gradientUnits="userSpaceOnUse"><stop stop-color="#C1C3C7"/><stop offset="1" stop-color="#898D94"/></linearGradient><linearGradient id="g" x1="117.354" x2="117.354" y1="7.274" y2="21.901" gradientUnits="userSpaceOnUse"><stop stop-color="#C1C3C7"/><stop offset="1" stop-color="#898D94"/></linearGradient><linearGradient id="h" x1="91.554" x2="91.554" y1="7.368" y2="21.999" gradientUnits="userSpaceOnUse"><stop stop-color="#C1C3C7"/><stop offset="1" stop-color="#898D94"/></linearGradient></defs></svg>